<?xml version="1.0" encoding="UTF-8" standalone="no"?>
<!-- Created with Inkscape (http://www.inkscape.org/) -->

<svg
   width="210mm"
   height="297mm"
   viewBox="0 0 210 297"
   version="1.1"
   id="svg1"
   inkscape:version="1.3.2 (091e20e, 2023-11-25, custom)"
   sodipodi:docname="Reto6_Objevtos _con_curvas.svg"
   xmlns:inkscape="http://www.inkscape.org/namespaces/inkscape"
   xmlns:sodipodi="http://sodipodi.sourceforge.net/DTD/sodipodi-0.dtd"
   xmlns="http://www.w3.org/2000/svg"
   xmlns:svg="http://www.w3.org/2000/svg">
  <sodipodi:namedview
     id="namedview1"
     pagecolor="#ffffff"
     bordercolor="#999999"
     borderopacity="1"
     inkscape:showpageshadow="2"
     inkscape:pageopacity="0"
     inkscape:pagecheckerboard="0"
     inkscape:deskcolor="#d1d1d1"
     inkscape:document-units="mm"
     inkscape:zoom="1.9578168"
     inkscape:cx="293.4391"
     inkscape:cy="404.27685"
     inkscape:window-width="1920"
     inkscape:window-height="991"
     inkscape:window-x="-9"
     inkscape:window-y="-9"
     inkscape:window-maximized="1"
     inkscape:current-layer="layer1" />
  <defs
     id="defs1" />
  <g
     inkscape:label="Capa 1"
     inkscape:groupmode="layer"
     id="layer1">
    <path
       style="fill:#999999;stroke:#000000;stroke-width:0.79375;stroke-linejoin:round;stroke-dasharray:none;paint-order:stroke markers fill"
       d="m 23.852568,84.193485 c 0,0 -4.966848,-5.479823 2.905554,-6.284106 7.514266,-0.767694 2.297414,6.757101 2.297414,6.757101 0,0 3.111018,-6.450949 5.946249,-6.148962 4.914663,0.523472 1.824418,6.824674 1.824418,6.824674 0,0 4.038831,-10.373699 10.068081,-4.121833 3.537061,3.667659 -3.851548,6.148962 -3.851548,6.148962 0,0 7.176878,-0.900343 7.838236,1.689274 0.64805,2.537507 -5.946248,5.135399 -5.946248,5.135399 0,0 8.245235,0.05026 4.324546,7.162526 -3.464092,6.28398 -7.432813,-3.851546 -7.432813,-3.851546 0,0 -1.723037,7.012186 -4.527256,7.094956 -2.724551,0.0804 -4.797544,-6.621961 -4.797544,-6.621961 0,0 0.875382,7.295411 -6.01382,6.013821 -4.940853,-0.91914 -1.013565,-7.500382 -1.013565,-7.500382 0,0 -5.903137,9.185932 -8.851803,4.729972 -3.269701,-4.941097 5.270539,-7.567954 5.270539,-7.567954 0,0 -9.364069,3.392835 -9.797796,-3.446124 -0.407779,-6.429812 7.36524,-1.756843 7.36524,-1.756843 0,0 -4.137627,-6.123961 -2.02713,-7.770667 1.923184,-1.500556 6.419246,3.513693 6.419246,3.513693 z"
       id="path1"
       sodipodi:nodetypes="cscscscscscscscscscsc" />
    <path
       style="fill:#ffccaa;stroke:#000000;stroke-width:0.79375;stroke-linejoin:round;stroke-dasharray:none;paint-order:stroke markers fill"
       d="m 67.560811,110.94498 2.962354,-25.13224 c 0,0 3.57088,-14.561603 5.064673,-13.951737 1.20223,0.490831 1.051158,13.856177 1.051158,13.856177 0,0 1.633645,-16.536005 3.153474,-16.436294 3.189888,0.209278 1.815636,16.340735 1.815636,16.340735 0,0 1.857698,-17.252076 3.344596,-17.296331 3.182372,-0.09472 2.293437,16.91409 2.293437,16.91409 0,0 1.390897,-15.299576 3.631273,-14.811775 4.506538,0.981216 -1.146719,22.647683 -1.146719,22.647683 0,0 9.51601,-9.926029 11.371617,-8.027026 2.61356,2.674676 -8.648162,12.90058 -8.648162,12.90058 L 81.799226,110.1805 Z"
       id="path2"
       sodipodi:nodetypes="ccscscscscsccc" />
    <path
       style="fill:#ffffff;stroke:#000000;stroke-width:0.79375;stroke-linejoin:round;stroke-dasharray:none;paint-order:stroke markers fill"
       d="m 39.083977,129.48359 c 0,0 3.796944,-13.74632 8.122587,-11.75386 4.638635,2.13663 -3.917956,14.81177 -3.917956,14.81177 0,0 10.909773,-10.32923 13.473941,-6.11582 2.782797,4.57266 -12.613902,9.93822 -12.613902,9.93822 0,0 13.416638,0.56345 11.753863,4.39575 -1.566888,3.6113 -13.856179,-1.4334 -13.856179,-1.4334 0,0 10.169887,8.07901 6.88031,10.79827 -3.612438,2.98615 -10.224905,-9.65155 -10.224905,-9.65155 0,0 0.210827,11.62772 -3.535714,10.89382 -3.855159,-0.75518 0.860038,-11.75386 0.860038,-11.75386 0,0 -8.411336,7.61085 -10.320462,4.39575 -1.783044,-3.00277 8.218147,-6.49806 8.218147,-6.49806 0,0 -11.181272,-2.03789 -9.938224,-5.63803 1.051229,-3.04459 9.555986,1.43339 9.555986,1.43339 0,0 -6.714055,-9.14002 -3.344596,-10.89382 2.758157,-1.43562 5.73359,7.35811 5.73359,7.35811 0,0 -2.652379,-8.77604 0.382241,-9.17375 3.07673,-0.40323 2.771235,8.88707 2.771235,8.88707 z"
       id="path4"
       sodipodi:nodetypes="cscscscscscscscscsc" />
    <path
       style="fill:#ffff00;stroke:#000000;stroke-width:0.79375;stroke-linejoin:round;stroke-dasharray:none;paint-order:stroke markers fill"
       id="path3"
       sodipodi:type="arc"
       sodipodi:cx="38.701736"
       sodipodi:cy="134.93051"
       sodipodi:rx="5.2557912"
       sodipodi:ry="5.2557912"
       sodipodi:start="4.9303833"
       sodipodi:end="4.9296194"
       sodipodi:open="true"
       sodipodi:arc-type="arc"
       d="m 39.838416,129.79911 a 5.2557912,5.2557912 0 0 1 3.994941,6.2671 5.2557912,5.2557912 0 0 1 -6.26634,3.99614 5.2557912,5.2557912 0 0 1 -3.997334,-6.26558 5.2557912,5.2557912 0 0 1 6.264813,-3.99853" />
    <path
       style="fill:#ffccaa;fill-opacity:1;stroke:#000000;stroke-width:0.79375;stroke-linejoin:round;stroke-dasharray:none;paint-order:stroke markers fill"
       d="m 82.181466,149.16892 v -25.13224 c 0,0 2.620647,-5.61591 5.255792,-6.59363 5.775105,-2.14274 18.156372,3.44015 18.156372,3.44015 l 0.28668,12.42278 c 0,0 3.95794,-1.8323 7.76916,-2.54815 2.4138,-0.45338 3.28593,-1.3446 5.26341,0.11196 1.55793,1.14753 1.31713,1.35085 0.45262,3.08192 -0.74292,1.4876 -3.20116,1.65986 -4.84557,1.9064 -5.10329,0.76511 -8.9263,0.028 -8.9263,0.028 l -0.28668,7.07143 -11.562743,-4.77799 c 0,0 1.015591,5.27493 2.866795,6.97586 2.26258,2.07891 8.791508,2.77124 8.791508,2.77124 v 4.20463 z"
       id="path5"
       sodipodi:nodetypes="ccsccsssscccsccc" />
    <path
       style="fill:#ffffff;stroke:#000000;stroke-width:0.79375;stroke-linejoin:round;stroke-dasharray:none;paint-order:stroke markers fill"
       id="path6"
       sodipodi:type="arc"
       sodipodi:cx="96.433052"
       sodipodi:cy="125.08887"
       sodipodi:rx="7.5165873"
       sodipodi:ry="3.2494049"
       sodipodi:start="5.4392773"
       sodipodi:end="0.23726776"
       sodipodi:arc-type="slice"
       d="m 101.42818,122.66076 a 7.5165873,3.2494049 0 0 1 2.31087,3.19187 l -7.305998,-0.76376 z" />
    <ellipse
       style="fill:#000000;stroke:#000000;stroke-width:0.755876;stroke-linejoin:round;stroke-dasharray:none;paint-order:stroke markers fill"
       id="path7"
       cx="103.0241"
       cy="124.77316"
       rx="0.85802937"
       ry="0.98157799" />
  </g>
</svg>
