<?xml version="1.0" encoding="UTF-8" standalone="no"?>
<!-- Created with Inkscape (http://www.inkscape.org/) -->

<svg
   width="210mm"
   height="297mm"
   viewBox="0 0 210 297"
   version="1.1"
   id="svg1"
   inkscape:version="1.3.2 (091e20e, 2023-11-25, custom)"
   sodipodi:docname="Reto5_Figuras_Geométricas.svg"
   xmlns:inkscape="http://www.inkscape.org/namespaces/inkscape"
   xmlns:sodipodi="http://sodipodi.sourceforge.net/DTD/sodipodi-0.dtd"
   xmlns="http://www.w3.org/2000/svg"
   xmlns:svg="http://www.w3.org/2000/svg">
  <sodipodi:namedview
     id="namedview1"
     pagecolor="#ffffff"
     bordercolor="#999999"
     borderopacity="1"
     inkscape:showpageshadow="2"
     inkscape:pageopacity="0"
     inkscape:pagecheckerboard="0"
     inkscape:deskcolor="#d1d1d1"
     inkscape:document-units="mm"
     inkscape:zoom="0.69219276"
     inkscape:cx="337.33378"
     inkscape:cy="276.65704"
     inkscape:window-width="1920"
     inkscape:window-height="991"
     inkscape:window-x="-9"
     inkscape:window-y="-9"
     inkscape:window-maximized="1"
     inkscape:current-layer="layer1" />
  <defs
     id="defs1" />
  <g
     inkscape:label="Capa 1"
     inkscape:groupmode="layer"
     id="layer1">
    <path
       style="fill:#d4aa00;fill-opacity:1;stroke:#000000;stroke-width:1.14855;stroke-linejoin:round;stroke-dasharray:none;paint-order:stroke markers fill"
       d="m 37.085588,56.344636 -0.192226,-16.33915 7.208448,-4.70952 11.245181,6.63177 -4.036733,14.32079 -9.995714,4.32507 z"
       id="path1"
       sodipodi:nodetypes="ccccccc" />
    <path
       style="fill:#d4aa00;stroke:#000000;stroke-width:1.14855;stroke-linejoin:round;paint-order:stroke markers fill"
       d="m 34.608889,40.250306 -0.311115,15.14098 -17.007673,-18.87437 5.185266,-2.38522 z"
       id="path2"
       sodipodi:nodetypes="ccccc" />
    <path
       style="fill:#d4aa00;fill-opacity:1;stroke:#000000;stroke-width:1.14855;stroke-linejoin:round;paint-order:stroke markers fill"
       d="m 36.682995,37.139146 6.844551,-4.87414 -0.311117,-20.32625 -4.977854,5.08156 z"
       id="path3"
       sodipodi:nodetypes="ccccc" />
    <path
       style="fill:#d4aa00;fill-opacity:1;stroke:#000000;stroke-width:1.14855;stroke-linejoin:round;paint-order:stroke markers fill"
       d="m 44.97942,32.161296 -0.207409,-20.22254 5.185264,3.31857 0.933349,20.42995 z"
       id="path4"
       sodipodi:nodetypes="ccccc" />
    <path
       style="fill:#d4aa00;fill-opacity:1;stroke:#000000;stroke-width:1.14855;stroke-linejoin:round;paint-order:stroke markers fill"
       d="m 52.653615,36.309506 4.148211,2.69634 0.518528,-7.46678 z"
       id="path5"
       sodipodi:nodetypes="cccc" />
    <path
       style="fill:#9955ff;fill-opacity:1;stroke:#000000;stroke-width:1.14855;stroke-linejoin:round;stroke-dasharray:none;paint-order:stroke markers fill"
       d="m 81.989993,57.485396 -0.192229,-16.33915 7.208449,-4.70952 11.245177,6.63177 -4.036729,14.32079 -9.995713,4.32507 z"
       id="path6"
       sodipodi:nodetypes="ccccccc" />
    <path
       style="fill:#d4aa00;fill-opacity:1;stroke:#000000;stroke-width:1.14855;stroke-linejoin:round;stroke-dasharray:none;paint-order:stroke markers fill"
       d="m 37.085588,56.344636 -0.192226,-16.33915 7.208448,-4.70952 11.245181,6.63177 -4.036733,14.32079 -9.995714,4.32507 z"
       id="path7"
       sodipodi:nodetypes="ccccccc" />
    <path
       style="fill:#d4aa00;fill-opacity:1;stroke:#000000;stroke-width:1.14855;stroke-linejoin:round;stroke-dasharray:none;paint-order:stroke markers fill"
       d="m 37.085588,56.344636 -0.192226,-16.33915 7.208448,-4.70952 11.245181,6.63177 -4.036733,14.32079 -9.995714,4.32507 z"
       id="path8"
       sodipodi:nodetypes="ccccccc" />
    <path
       style="fill:#d4aa00;fill-opacity:1;stroke:#000000;stroke-width:1.14855;stroke-linejoin:round;stroke-dasharray:none;paint-order:stroke markers fill"
       d="m 37.085588,56.344636 -0.192226,-16.33915 7.208448,-4.70952 11.245181,6.63177 -4.036733,14.32079 -9.995714,4.32507 z"
       id="path9"
       sodipodi:nodetypes="ccccccc" />
    <path
       style="fill:#d4aa00;fill-opacity:1;stroke:#000000;stroke-width:1.14855;stroke-linejoin:round;stroke-dasharray:none;paint-order:stroke markers fill"
       d="m 37.085588,56.344636 -0.192226,-16.33915 7.208448,-4.70952 11.245181,6.63177 -4.036733,14.32079 -9.995714,4.32507 z"
       id="path10"
       sodipodi:nodetypes="ccccccc" />
    <path
       style="fill:#d4aa00;fill-opacity:1;stroke:#000000;stroke-width:1.14855;stroke-linejoin:round;stroke-dasharray:none;paint-order:stroke markers fill"
       d="m 37.085588,56.344636 -0.192226,-16.33915 7.208448,-4.70952 11.245181,6.63177 -4.036733,14.32079 -9.995714,4.32507 z"
       id="path11"
       sodipodi:nodetypes="ccccccc" />
    <path
       style="fill:#d4aa00;fill-opacity:1;stroke:#000000;stroke-width:1.14855;stroke-linejoin:round;stroke-dasharray:none;paint-order:stroke markers fill"
       d="m 37.085588,56.344636 -0.192226,-16.33915 7.208448,-4.70952 11.245181,6.63177 -4.036733,14.32079 -9.995714,4.32507 z"
       id="path12"
       sodipodi:nodetypes="ccccccc" />
    <path
       style="fill:#d4aa00;fill-opacity:1;stroke:#000000;stroke-width:1.14855;stroke-linejoin:round;stroke-dasharray:none;paint-order:stroke markers fill"
       d="m 37.085588,56.344636 -0.192226,-16.33915 7.208448,-4.70952 11.245181,6.63177 -4.036733,14.32079 -9.995714,4.32507 z"
       id="path13"
       sodipodi:nodetypes="ccccccc" />
    <path
       style="fill:#d4aa00;fill-opacity:1;stroke:#000000;stroke-width:1.14855;stroke-linejoin:round;stroke-dasharray:none;paint-order:stroke markers fill"
       d="m 37.085588,56.344636 -0.192226,-16.33915 7.208448,-4.70952 11.245181,6.63177 -4.036733,14.32079 -9.995714,4.32507 z"
       id="path14"
       sodipodi:nodetypes="ccccccc" />
    <path
       style="fill:#d4aa00;fill-opacity:1;stroke:#000000;stroke-width:1.14855;stroke-linejoin:round;stroke-dasharray:none;paint-order:stroke markers fill"
       d="m 37.085588,56.344636 -0.192226,-16.33915 7.208448,-4.70952 11.245181,6.63177 -4.036733,14.32079 -9.995714,4.32507 z"
       id="path15"
       sodipodi:nodetypes="ccccccc" />
    <path
       style="fill:#d4aa00;fill-opacity:1;stroke:#000000;stroke-width:1.14855;stroke-linejoin:round;stroke-dasharray:none;paint-order:stroke markers fill"
       d="m 37.085588,56.344636 -0.192226,-16.33915 7.208448,-4.70952 11.245181,6.63177 -4.036733,14.32079 -9.995714,4.32507 z"
       id="path16"
       sodipodi:nodetypes="ccccccc" />
    <path
       style="fill:#d4aa00;fill-opacity:1;stroke:#000000;stroke-width:1.14855;stroke-linejoin:round;stroke-dasharray:none;paint-order:stroke markers fill"
       d="m 37.085588,56.344636 -0.192226,-16.33915 7.208448,-4.70952 11.245181,6.63177 -4.036733,14.32079 -9.995714,4.32507 z"
       id="path17"
       sodipodi:nodetypes="ccccccc" />
    <path
       style="fill:#d4aa00;fill-opacity:1;stroke:#000000;stroke-width:1.14855;stroke-linejoin:round;stroke-dasharray:none;paint-order:stroke markers fill"
       d="m 37.085588,56.344636 -0.192226,-16.33915 7.208448,-4.70952 11.245181,6.63177 -4.036733,14.32079 -9.995714,4.32507 z"
       id="path18"
       sodipodi:nodetypes="ccccccc" />
    <path
       style="fill:#d4aa00;fill-opacity:1;stroke:#000000;stroke-width:1.14855;stroke-linejoin:round;stroke-dasharray:none;paint-order:stroke markers fill"
       d="m 37.085588,56.344636 -0.192226,-16.33915 7.208448,-4.70952 11.245181,6.63177 -4.036733,14.32079 -9.995714,4.32507 z"
       id="path19"
       sodipodi:nodetypes="ccccccc" />
    <path
       style="fill:#d4aa00;fill-opacity:1;stroke:#000000;stroke-width:1.14855;stroke-linejoin:round;stroke-dasharray:none;paint-order:stroke markers fill"
       d="m 37.085588,56.344636 -0.192226,-16.33915 7.208448,-4.70952 11.245181,6.63177 -4.036733,14.32079 -9.995714,4.32507 z"
       id="path20"
       sodipodi:nodetypes="ccccccc" />
    <path
       style="fill:#d4aa00;fill-opacity:1;stroke:#000000;stroke-width:1.14855;stroke-linejoin:round;stroke-dasharray:none;paint-order:stroke markers fill"
       d="m 37.085588,56.344636 -0.192226,-16.33915 7.208448,-4.70952 11.245181,6.63177 -4.036733,14.32079 -9.995714,4.32507 z"
       id="path21"
       sodipodi:nodetypes="ccccccc" />
    <path
       style="fill:#d4aa00;fill-opacity:1;stroke:#000000;stroke-width:1.14855;stroke-linejoin:round;stroke-dasharray:none;paint-order:stroke markers fill"
       d="m 37.085588,56.344636 -0.192226,-16.33915 7.208448,-4.70952 11.245181,6.63177 -4.036733,14.32079 -9.995714,4.32507 z"
       id="path22"
       sodipodi:nodetypes="ccccccc" />
    <path
       style="fill:#d4aa00;fill-opacity:1;stroke:#000000;stroke-width:1.14855;stroke-linejoin:round;stroke-dasharray:none;paint-order:stroke markers fill"
       d="m 37.085588,56.344636 -0.192226,-16.33915 7.208448,-4.70952 11.245181,6.63177 -4.036733,14.32079 -9.995714,4.32507 z"
       id="path23"
       sodipodi:nodetypes="ccccccc" />
    <path
       style="fill:#d4aa00;fill-opacity:1;stroke:#000000;stroke-width:1.14855;stroke-linejoin:round;stroke-dasharray:none;paint-order:stroke markers fill"
       d="m 37.085588,56.344636 -0.192226,-16.33915 7.208448,-4.70952 11.245181,6.63177 -4.036733,14.32079 -9.995714,4.32507 z"
       id="path24"
       sodipodi:nodetypes="ccccccc" />
    <path
       style="fill:#d4aa00;fill-opacity:1;stroke:#000000;stroke-width:1.14855;stroke-linejoin:round;stroke-dasharray:none;paint-order:stroke markers fill"
       d="m 37.085588,56.344636 -0.192226,-16.33915 7.208448,-4.70952 11.245181,6.63177 -4.036733,14.32079 -9.995714,4.32507 z"
       id="path25"
       sodipodi:nodetypes="ccccccc" />
    <path
       style="fill:#d4aa00;fill-opacity:1;stroke:#000000;stroke-width:1.14855;stroke-linejoin:round;stroke-dasharray:none;paint-order:stroke markers fill"
       d="m 37.085588,56.344636 -0.192226,-16.33915 7.208448,-4.70952 11.245181,6.63177 -4.036733,14.32079 -9.995714,4.32507 z"
       id="path26"
       sodipodi:nodetypes="ccccccc" />
    <path
       style="fill:#d4aa00;fill-opacity:1;stroke:#000000;stroke-width:1.14855;stroke-linejoin:round;stroke-dasharray:none;paint-order:stroke markers fill"
       d="m 37.085588,56.344636 -0.192226,-16.33915 7.208448,-4.70952 11.245181,6.63177 -4.036733,14.32079 -9.995714,4.32507 z"
       id="path27"
       sodipodi:nodetypes="ccccccc" />
    <path
       style="fill:#d4aa00;fill-opacity:1;stroke:#000000;stroke-width:1.14855;stroke-linejoin:round;stroke-dasharray:none;paint-order:stroke markers fill"
       d="m 37.085588,56.344636 -0.192226,-16.33915 7.208448,-4.70952 11.245181,6.63177 -4.036733,14.32079 -9.995714,4.32507 z"
       id="path28"
       sodipodi:nodetypes="ccccccc" />
    <path
       style="fill:#d4aa00;fill-opacity:1;stroke:#000000;stroke-width:1.14855;stroke-linejoin:round;stroke-dasharray:none;paint-order:stroke markers fill"
       d="m 37.085588,56.344636 -0.192226,-16.33915 7.208448,-4.70952 11.245181,6.63177 -4.036733,14.32079 -9.995714,4.32507 z"
       id="path29"
       sodipodi:nodetypes="ccccccc" />
    <path
       style="fill:#d4aa00;fill-opacity:1;stroke:#000000;stroke-width:1.14855;stroke-linejoin:round;stroke-dasharray:none;paint-order:stroke markers fill"
       d="m 37.085588,56.344636 -0.192226,-16.33915 7.208448,-4.70952 11.245181,6.63177 -4.036733,14.32079 -9.995714,4.32507 z"
       id="path30"
       sodipodi:nodetypes="ccccccc" />
    <path
       style="fill:#9955ff;fill-opacity:1;stroke:#000000;stroke-width:1.14855;stroke-linejoin:round;paint-order:stroke markers fill"
       d="m 34.608889,40.250306 -0.311115,15.14098 -17.007673,-18.87437 5.185266,-2.38522 z"
       id="path31"
       sodipodi:nodetypes="ccccc" />
    <path
       style="fill:#d4aa00;stroke:#000000;stroke-width:1.14855;stroke-linejoin:round;paint-order:stroke markers fill"
       d="m 34.608889,40.250306 -0.311115,15.14098 -17.007673,-18.87437 5.185266,-2.38522 z"
       id="path32"
       sodipodi:nodetypes="ccccc" />
    <path
       style="fill:#d4aa00;stroke:#000000;stroke-width:1.14855;stroke-linejoin:round;paint-order:stroke markers fill"
       d="m 34.608889,40.250306 -0.311115,15.14098 -17.007673,-18.87437 5.185266,-2.38522 z"
       id="path33"
       sodipodi:nodetypes="ccccc" />
    <path
       style="fill:#d4aa00;stroke:#000000;stroke-width:1.14855;stroke-linejoin:round;paint-order:stroke markers fill"
       d="m 34.608889,40.250306 -0.311115,15.14098 -17.007673,-18.87437 5.185266,-2.38522 z"
       id="path34"
       sodipodi:nodetypes="ccccc" />
    <path
       style="fill:#d4aa00;stroke:#000000;stroke-width:1.14855;stroke-linejoin:round;paint-order:stroke markers fill"
       d="m 34.608889,40.250306 -0.311115,15.14098 -17.007673,-18.87437 5.185266,-2.38522 z"
       id="path35"
       sodipodi:nodetypes="ccccc" />
    <path
       style="fill:#d4aa00;stroke:#000000;stroke-width:1.14855;stroke-linejoin:round;paint-order:stroke markers fill"
       d="m 34.608889,40.250306 -0.311115,15.14098 -17.007673,-18.87437 5.185266,-2.38522 z"
       id="path36"
       sodipodi:nodetypes="ccccc" />
    <path
       style="fill:#d4aa00;stroke:#000000;stroke-width:1.14855;stroke-linejoin:round;paint-order:stroke markers fill"
       d="m 34.608889,40.250306 -0.311115,15.14098 -17.007673,-18.87437 5.185266,-2.38522 z"
       id="path37"
       sodipodi:nodetypes="ccccc" />
    <path
       style="fill:#d4aa00;stroke:#000000;stroke-width:1.14855;stroke-linejoin:round;paint-order:stroke markers fill"
       d="m 34.608889,40.250306 -0.311115,15.14098 -17.007673,-18.87437 5.185266,-2.38522 z"
       id="path38"
       sodipodi:nodetypes="ccccc" />
    <path
       style="fill:#d4aa00;stroke:#000000;stroke-width:1.14855;stroke-linejoin:round;paint-order:stroke markers fill"
       d="m 34.608889,40.250306 -0.311115,15.14098 -17.007673,-18.87437 5.185266,-2.38522 z"
       id="path39"
       sodipodi:nodetypes="ccccc" />
    <path
       style="fill:#d4aa00;stroke:#000000;stroke-width:1.14855;stroke-linejoin:round;paint-order:stroke markers fill"
       d="m 34.608889,40.250306 -0.311115,15.14098 -17.007673,-18.87437 5.185266,-2.38522 z"
       id="path40"
       sodipodi:nodetypes="ccccc" />
    <path
       style="fill:#d4aa00;stroke:#000000;stroke-width:1.14855;stroke-linejoin:round;paint-order:stroke markers fill"
       d="m 34.608889,40.250306 -0.311115,15.14098 -17.007673,-18.87437 5.185266,-2.38522 z"
       id="path41"
       sodipodi:nodetypes="ccccc" />
    <path
       style="fill:#d4aa00;stroke:#000000;stroke-width:1.14855;stroke-linejoin:round;paint-order:stroke markers fill"
       d="m 34.608889,40.250306 -0.311115,15.14098 -17.007673,-18.87437 5.185266,-2.38522 z"
       id="path42"
       sodipodi:nodetypes="ccccc" />
    <path
       style="fill:#d4aa00;stroke:#000000;stroke-width:1.14855;stroke-linejoin:round;paint-order:stroke markers fill"
       d="m 34.608889,40.250306 -0.311115,15.14098 -17.007673,-18.87437 5.185266,-2.38522 z"
       id="path43"
       sodipodi:nodetypes="ccccc" />
    <path
       style="fill:#d4aa00;stroke:#000000;stroke-width:1.14855;stroke-linejoin:round;paint-order:stroke markers fill"
       d="m 34.608889,40.250306 -0.311115,15.14098 -17.007673,-18.87437 5.185266,-2.38522 z"
       id="path44"
       sodipodi:nodetypes="ccccc" />
    <path
       style="fill:#d4aa00;stroke:#000000;stroke-width:1.14855;stroke-linejoin:round;paint-order:stroke markers fill"
       d="m 34.608889,40.250306 -0.311115,15.14098 -17.007673,-18.87437 5.185266,-2.38522 z"
       id="path45"
       sodipodi:nodetypes="ccccc" />
    <path
       style="fill:#d4aa00;stroke:#000000;stroke-width:1.14855;stroke-linejoin:round;paint-order:stroke markers fill"
       d="m 34.608889,40.250306 -0.311115,15.14098 -17.007673,-18.87437 5.185266,-2.38522 z"
       id="path46"
       sodipodi:nodetypes="ccccc" />
    <path
       style="fill:#d4aa00;stroke:#000000;stroke-width:1.14855;stroke-linejoin:round;paint-order:stroke markers fill"
       d="m 34.608889,40.250306 -0.311115,15.14098 -17.007673,-18.87437 5.185266,-2.38522 z"
       id="path47"
       sodipodi:nodetypes="ccccc" />
    <path
       style="fill:#d4aa00;stroke:#000000;stroke-width:1.14855;stroke-linejoin:round;paint-order:stroke markers fill"
       d="m 34.608889,40.250306 -0.311115,15.14098 -17.007673,-18.87437 5.185266,-2.38522 z"
       id="path48"
       sodipodi:nodetypes="ccccc" />
    <path
       style="fill:#d4aa00;stroke:#000000;stroke-width:1.14855;stroke-linejoin:round;paint-order:stroke markers fill"
       d="m 34.608889,40.250306 -0.311115,15.14098 -17.007673,-18.87437 5.185266,-2.38522 z"
       id="path49"
       sodipodi:nodetypes="ccccc" />
    <path
       style="fill:#d4aa00;stroke:#000000;stroke-width:1.14855;stroke-linejoin:round;paint-order:stroke markers fill"
       d="m 34.608889,40.250306 -0.311115,15.14098 -17.007673,-18.87437 5.185266,-2.38522 z"
       id="path50"
       sodipodi:nodetypes="ccccc" />
    <path
       style="fill:#d4aa00;stroke:#000000;stroke-width:1.14855;stroke-linejoin:round;paint-order:stroke markers fill"
       d="m 34.608889,40.250306 -0.311115,15.14098 -17.007673,-18.87437 5.185266,-2.38522 z"
       id="path51"
       sodipodi:nodetypes="ccccc" />
    <path
       style="fill:#d4aa00;stroke:#000000;stroke-width:1.14855;stroke-linejoin:round;paint-order:stroke markers fill"
       d="m 34.608889,40.250306 -0.311115,15.14098 -17.007673,-18.87437 5.185266,-2.38522 z"
       id="path52"
       sodipodi:nodetypes="ccccc" />
    <path
       style="fill:#d4aa00;stroke:#000000;stroke-width:1.14855;stroke-linejoin:round;paint-order:stroke markers fill"
       d="m 34.608889,40.250306 -0.311115,15.14098 -17.007673,-18.87437 5.185266,-2.38522 z"
       id="path53"
       sodipodi:nodetypes="ccccc" />
    <path
       style="fill:#d4aa00;stroke:#000000;stroke-width:1.14855;stroke-linejoin:round;paint-order:stroke markers fill"
       d="m 34.608889,40.250306 -0.311115,15.14098 -17.007673,-18.87437 5.185266,-2.38522 z"
       id="path54"
       sodipodi:nodetypes="ccccc" />
    <path
       style="fill:#d4aa00;stroke:#000000;stroke-width:1.14855;stroke-linejoin:round;paint-order:stroke markers fill"
       d="m 34.608889,40.250306 -0.311115,15.14098 -17.007673,-18.87437 5.185266,-2.38522 z"
       id="path55"
       sodipodi:nodetypes="ccccc" />
    <path
       style="fill:#d4aa00;stroke:#000000;stroke-width:1.14855;stroke-linejoin:round;paint-order:stroke markers fill"
       d="m 34.608889,40.250306 -0.311115,15.14098 -17.007673,-18.87437 5.185266,-2.38522 z"
       id="path56"
       sodipodi:nodetypes="ccccc" />
    <path
       style="fill:#d4aa00;stroke:#000000;stroke-width:1.14855;stroke-linejoin:round;paint-order:stroke markers fill"
       d="m 34.608889,40.250306 -0.311115,15.14098 -17.007673,-18.87437 5.185266,-2.38522 z"
       id="path57"
       sodipodi:nodetypes="ccccc" />
    <path
       style="fill:#d4aa00;stroke:#000000;stroke-width:1.14855;stroke-linejoin:round;paint-order:stroke markers fill"
       d="m 34.608889,40.250306 -0.311115,15.14098 -17.007673,-18.87437 5.185266,-2.38522 z"
       id="path58"
       sodipodi:nodetypes="ccccc" />
    <path
       style="fill:#d4aa00;stroke:#000000;stroke-width:1.14855;stroke-linejoin:round;paint-order:stroke markers fill"
       d="m 34.608889,40.250306 -0.311115,15.14098 -17.007673,-18.87437 5.185266,-2.38522 z"
       id="path59"
       sodipodi:nodetypes="ccccc" />
    <path
       style="fill:#d4aa00;stroke:#000000;stroke-width:1.14855;stroke-linejoin:round;paint-order:stroke markers fill"
       d="m 34.608889,40.250306 -0.311115,15.14098 -17.007673,-18.87437 5.185266,-2.38522 z"
       id="path60"
       sodipodi:nodetypes="ccccc" />
    <path
       style="fill:#d4aa00;stroke:#000000;stroke-width:1.14855;stroke-linejoin:round;paint-order:stroke markers fill"
       d="m 34.608889,40.250306 -0.311115,15.14098 -17.007673,-18.87437 5.185266,-2.38522 z"
       id="path61"
       sodipodi:nodetypes="ccccc" />
    <path
       style="fill:#9955ff;fill-opacity:1;stroke:#000000;stroke-width:1.14855;stroke-linejoin:round;stroke-dasharray:none;paint-order:stroke markers fill"
       d="m 80.757757,38.902146 7.363074,-4.66674 -2.488927,-18.45955 -4.251919,3.52598 z"
       id="path62" />
    <path
       style="fill:#9955ff;fill-opacity:1;stroke:#000000;stroke-width:1.14855;stroke-linejoin:round;stroke-dasharray:none;paint-order:stroke markers fill"
       d="m 91.750517,14.842506 -1.866693,19.91142 3.111159,1.65929 1.659288,-17.62991 z"
       id="path63" />
    <path
       style="fill:#9955ff;fill-opacity:1;stroke:#000000;stroke-width:1.14855;stroke-linejoin:round;stroke-dasharray:none;paint-order:stroke markers fill"
       d="m 94.55056,37.139156 2.17781,1.86669 6.11862,-15.45209 -2.69634,-4.35562 z"
       id="path64"
       sodipodi:nodetypes="ccccc" />
    <path
       style="fill:#9955ff;fill-opacity:1;stroke:#000000;stroke-width:1.14855;stroke-linejoin:round;stroke-dasharray:none;paint-order:stroke markers fill"
       d="m 98.595069,39.835486 2.800041,1.45188 6.63714,-12.34093 -1.8667,-3.42228 z"
       id="path65"
       sodipodi:nodetypes="ccccc" />
    <path
       style="fill:#ff0000;fill-opacity:1;stroke:#000000;stroke-width:1.14855;stroke-linejoin:round;stroke-dasharray:none;paint-order:stroke markers fill"
       d="m 82.404815,122.19752 -0.192229,-16.33915 7.208448,-4.70952 11.245186,6.63177 -4.036737,14.32078 -9.995713,4.32507 z"
       id="path66"
       sodipodi:nodetypes="ccccccc" />
    <path
       style="fill:#9955ff;fill-opacity:1;stroke:#000000;stroke-width:1.14855;stroke-linejoin:round;stroke-dasharray:none;paint-order:stroke markers fill"
       d="m 81.989993,57.485396 -0.192229,-16.33915 7.208449,-4.70952 11.245177,6.63177 -4.036729,14.32079 -9.995713,4.32507 z"
       id="path67"
       sodipodi:nodetypes="ccccccc" />
    <path
       style="fill:#9955ff;fill-opacity:1;stroke:#000000;stroke-width:1.14855;stroke-linejoin:round;stroke-dasharray:none;paint-order:stroke markers fill"
       d="m 81.989993,57.485396 -0.192229,-16.33915 7.208449,-4.70952 11.245177,6.63177 -4.036729,14.32079 -9.995713,4.32507 z"
       id="path68"
       sodipodi:nodetypes="ccccccc" />
    <path
       style="fill:#9955ff;fill-opacity:1;stroke:#000000;stroke-width:1.14855;stroke-linejoin:round;stroke-dasharray:none;paint-order:stroke markers fill"
       d="m 81.989993,57.485396 -0.192229,-16.33915 7.208449,-4.70952 11.245177,6.63177 -4.036729,14.32079 -9.995713,4.32507 z"
       id="path69"
       sodipodi:nodetypes="ccccccc" />
    <path
       style="fill:#9955ff;fill-opacity:1;stroke:#000000;stroke-width:1.14855;stroke-linejoin:round;stroke-dasharray:none;paint-order:stroke markers fill"
       d="m 81.989993,57.485396 -0.192229,-16.33915 7.208449,-4.70952 11.245177,6.63177 -4.036729,14.32079 -9.995713,4.32507 z"
       id="path70"
       sodipodi:nodetypes="ccccccc" />
    <path
       style="fill:#9955ff;fill-opacity:1;stroke:#000000;stroke-width:1.14855;stroke-linejoin:round;stroke-dasharray:none;paint-order:stroke markers fill"
       d="m 81.989993,57.485396 -0.192229,-16.33915 7.208449,-4.70952 11.245177,6.63177 -4.036729,14.32079 -9.995713,4.32507 z"
       id="path71"
       sodipodi:nodetypes="ccccccc" />
    <path
       style="fill:#9955ff;fill-opacity:1;stroke:#000000;stroke-width:1.14855;stroke-linejoin:round;stroke-dasharray:none;paint-order:stroke markers fill"
       d="m 81.989993,57.485396 -0.192229,-16.33915 7.208449,-4.70952 11.245177,6.63177 -4.036729,14.32079 -9.995713,4.32507 z"
       id="path72"
       sodipodi:nodetypes="ccccccc" />
    <path
       style="fill:#9955ff;fill-opacity:1;stroke:#000000;stroke-width:1.14855;stroke-linejoin:round;stroke-dasharray:none;paint-order:stroke markers fill"
       d="m 81.989993,57.485396 -0.192229,-16.33915 7.208449,-4.70952 11.245177,6.63177 -4.036729,14.32079 -9.995713,4.32507 z"
       id="path73"
       sodipodi:nodetypes="ccccccc" />
    <path
       style="fill:#9955ff;fill-opacity:1;stroke:#000000;stroke-width:1.14855;stroke-linejoin:round;stroke-dasharray:none;paint-order:stroke markers fill"
       d="m 81.989993,57.485396 -0.192229,-16.33915 7.208449,-4.70952 11.245177,6.63177 -4.036729,14.32079 -9.995713,4.32507 z"
       id="path74"
       sodipodi:nodetypes="ccccccc" />
    <path
       style="fill:#9955ff;fill-opacity:1;stroke:#000000;stroke-width:1.14855;stroke-linejoin:round;stroke-dasharray:none;paint-order:stroke markers fill"
       d="m 81.989993,57.485396 -0.192229,-16.33915 7.208449,-4.70952 11.245177,6.63177 -4.036729,14.32079 -9.995713,4.32507 z"
       id="path75"
       sodipodi:nodetypes="ccccccc" />
    <path
       style="fill:#9955ff;fill-opacity:1;stroke:#000000;stroke-width:1.14855;stroke-linejoin:round;stroke-dasharray:none;paint-order:stroke markers fill"
       d="m 81.989993,57.485396 -0.192229,-16.33915 7.208449,-4.70952 11.245177,6.63177 -4.036729,14.32079 -9.995713,4.32507 z"
       id="path76"
       sodipodi:nodetypes="ccccccc" />
    <path
       style="fill:#9955ff;fill-opacity:1;stroke:#000000;stroke-width:1.14855;stroke-linejoin:round;stroke-dasharray:none;paint-order:stroke markers fill"
       d="m 81.989993,57.485396 -0.192229,-16.33915 7.208449,-4.70952 11.245177,6.63177 -4.036729,14.32079 -9.995713,4.32507 z"
       id="path77"
       sodipodi:nodetypes="ccccccc" />
    <path
       style="fill:#9955ff;fill-opacity:1;stroke:#000000;stroke-width:1.14855;stroke-linejoin:round;stroke-dasharray:none;paint-order:stroke markers fill"
       d="m 81.989993,57.485396 -0.192229,-16.33915 7.208449,-4.70952 11.245177,6.63177 -4.036729,14.32079 -9.995713,4.32507 z"
       id="path78"
       sodipodi:nodetypes="ccccccc" />
    <path
       style="fill:#9955ff;fill-opacity:1;stroke:#000000;stroke-width:1.14855;stroke-linejoin:round;stroke-dasharray:none;paint-order:stroke markers fill"
       d="m 81.989993,57.485396 -0.192229,-16.33915 7.208449,-4.70952 11.245177,6.63177 -4.036729,14.32079 -9.995713,4.32507 z"
       id="path79"
       sodipodi:nodetypes="ccccccc" />
    <path
       style="fill:#9955ff;fill-opacity:1;stroke:#000000;stroke-width:1.14855;stroke-linejoin:round;stroke-dasharray:none;paint-order:stroke markers fill"
       d="m 81.989993,57.485396 -0.192229,-16.33915 7.208449,-4.70952 11.245177,6.63177 -4.036729,14.32079 -9.995713,4.32507 z"
       id="path80"
       sodipodi:nodetypes="ccccccc" />
    <path
       style="fill:#9955ff;fill-opacity:1;stroke:#000000;stroke-width:1.14855;stroke-linejoin:round;stroke-dasharray:none;paint-order:stroke markers fill"
       d="m 81.989993,57.485396 -0.192229,-16.33915 7.208449,-4.70952 11.245177,6.63177 -4.036729,14.32079 -9.995713,4.32507 z"
       id="path81"
       sodipodi:nodetypes="ccccccc" />
    <path
       style="fill:#9955ff;fill-opacity:1;stroke:#000000;stroke-width:1.14855;stroke-linejoin:round;stroke-dasharray:none;paint-order:stroke markers fill"
       d="m 81.989993,57.485396 -0.192229,-16.33915 7.208449,-4.70952 11.245177,6.63177 -4.036729,14.32079 -9.995713,4.32507 z"
       id="path82"
       sodipodi:nodetypes="ccccccc" />
    <path
       style="fill:#9955ff;fill-opacity:1;stroke:#000000;stroke-width:1.14855;stroke-linejoin:round;stroke-dasharray:none;paint-order:stroke markers fill"
       d="m 81.989993,57.485396 -0.192229,-16.33915 7.208449,-4.70952 11.245177,6.63177 -4.036729,14.32079 -9.995713,4.32507 z"
       id="path83"
       sodipodi:nodetypes="ccccccc" />
    <path
       style="fill:#9955ff;fill-opacity:1;stroke:#000000;stroke-width:1.14855;stroke-linejoin:round;stroke-dasharray:none;paint-order:stroke markers fill"
       d="m 81.989993,57.485396 -0.192229,-16.33915 7.208449,-4.70952 11.245177,6.63177 -4.036729,14.32079 -9.995713,4.32507 z"
       id="path84"
       sodipodi:nodetypes="ccccccc" />
    <path
       style="fill:#9955ff;fill-opacity:1;stroke:#000000;stroke-width:1.14855;stroke-linejoin:round;stroke-dasharray:none;paint-order:stroke markers fill"
       d="m 81.989993,57.485396 -0.192229,-16.33915 7.208449,-4.70952 11.245177,6.63177 -4.036729,14.32079 -9.995713,4.32507 z"
       id="path85"
       sodipodi:nodetypes="ccccccc" />
    <path
       style="fill:#9955ff;fill-opacity:1;stroke:#000000;stroke-width:1.14855;stroke-linejoin:round;stroke-dasharray:none;paint-order:stroke markers fill"
       d="m 81.989993,57.485396 -0.192229,-16.33915 7.208449,-4.70952 11.245177,6.63177 -4.036729,14.32079 -9.995713,4.32507 z"
       id="path86"
       sodipodi:nodetypes="ccccccc" />
    <path
       style="fill:#9955ff;fill-opacity:1;stroke:#000000;stroke-width:1.14855;stroke-linejoin:round;stroke-dasharray:none;paint-order:stroke markers fill"
       d="m 81.989993,57.485396 -0.192229,-16.33915 7.208449,-4.70952 11.245177,6.63177 -4.036729,14.32079 -9.995713,4.32507 z"
       id="path87"
       sodipodi:nodetypes="ccccccc" />
    <path
       style="fill:#9955ff;fill-opacity:1;stroke:#000000;stroke-width:1.14855;stroke-linejoin:round;stroke-dasharray:none;paint-order:stroke markers fill"
       d="m 81.989993,57.485396 -0.192229,-16.33915 7.208449,-4.70952 11.245177,6.63177 -4.036729,14.32079 -9.995713,4.32507 z"
       id="path88"
       sodipodi:nodetypes="ccccccc" />
    <path
       style="fill:#9955ff;fill-opacity:1;stroke:#000000;stroke-width:1.14855;stroke-linejoin:round;stroke-dasharray:none;paint-order:stroke markers fill"
       d="m 81.989993,57.485396 -0.192229,-16.33915 7.208449,-4.70952 11.245177,6.63177 -4.036729,14.32079 -9.995713,4.32507 z"
       id="path89"
       sodipodi:nodetypes="ccccccc" />
    <path
       style="fill:#9955ff;fill-opacity:1;stroke:#000000;stroke-width:1.14855;stroke-linejoin:round;stroke-dasharray:none;paint-order:stroke markers fill"
       d="m 81.989993,57.485396 -0.192229,-16.33915 7.208449,-4.70952 11.245177,6.63177 -4.036729,14.32079 -9.995713,4.32507 z"
       id="path90"
       sodipodi:nodetypes="ccccccc" />
    <path
       style="fill:#ff0000;fill-opacity:1;stroke:#000000;stroke-width:1.14855;stroke-linejoin:round;stroke-dasharray:none;paint-order:stroke markers fill"
       d="m 77.542887,96.769706 0.207417,23.644824 -9.955716,-14.41504 z"
       id="path91" />
    <path
       style="fill:#ff0000;fill-opacity:1;stroke:#000000;stroke-width:1.14855;stroke-linejoin:round;stroke-dasharray:none;paint-order:stroke markers fill"
       d="m 81.172579,101.95498 5.392675,-3.629694 -0.414822,-22.29664 -4.25192,6.22232 z"
       id="path92" />
    <path
       style="fill:#ff0000;fill-opacity:1;stroke:#000000;stroke-width:1.14855;stroke-linejoin:round;stroke-dasharray:none;paint-order:stroke markers fill"
       d="M 90.817173,97.184536 101.70623,104.4439 99.321007,86.606586 90.298646,76.339766 Z"
       id="path93"
       sodipodi:nodetypes="ccccc" />
    <path
       style="fill:#ff0000;fill-opacity:1;stroke:#000000;stroke-width:1.14855;stroke-linejoin:round;stroke-dasharray:none;paint-order:stroke markers fill"
       d="m 81.989993,57.485396 -0.192229,-16.33915 7.208449,-4.70952 11.245177,6.63177 -4.036729,14.32079 -9.995713,4.32507 z"
       id="path94"
       sodipodi:nodetypes="ccccccc" />
    <path
       style="fill:#ff0000;fill-opacity:1;stroke:#000000;stroke-width:1.14855;stroke-linejoin:round;stroke-dasharray:none;paint-order:stroke markers fill"
       d="m 81.989993,57.485396 -0.192229,-16.33915 7.208449,-4.70952 11.245177,6.63177 -4.036729,14.32079 -9.995713,4.32507 z"
       id="path95"
       sodipodi:nodetypes="ccccccc" />
    <path
       style="fill:#ff0000;fill-opacity:1;stroke:#000000;stroke-width:1.14855;stroke-linejoin:round;stroke-dasharray:none;paint-order:stroke markers fill"
       d="m 81.989993,57.485396 -0.192229,-16.33915 7.208449,-4.70952 11.245177,6.63177 -4.036729,14.32079 -9.995713,4.32507 z"
       id="path96"
       sodipodi:nodetypes="ccccccc" />
    <path
       style="fill:#9955ff;fill-opacity:1;stroke:#000000;stroke-width:1.14855;stroke-linejoin:round;stroke-dasharray:none;paint-order:stroke markers fill"
       d="m 81.989993,57.485396 -0.192229,-16.33915 7.208449,-4.70952 11.245177,6.63177 -4.036729,14.32079 -9.995713,4.32507 z"
       id="path97"
       sodipodi:nodetypes="ccccccc" />
    <path
       style="fill:#ff0000;fill-opacity:1;stroke:#000000;stroke-width:1.14855;stroke-linejoin:round;stroke-dasharray:none;paint-order:stroke markers fill"
       d="m 81.989993,57.485396 -0.192229,-16.33915 7.208449,-4.70952 11.245177,6.63177 -4.036729,14.32079 -9.995713,4.32507 z"
       id="path107"
       sodipodi:nodetypes="ccccccc" />
    <path
       style="fill:#ff0000;fill-opacity:1;stroke:#000000;stroke-width:1.14855;stroke-linejoin:round;stroke-dasharray:none;paint-order:stroke markers fill"
       d="m 81.989993,57.485396 -0.192229,-16.33915 7.208449,-4.70952 11.245177,6.63177 -4.036729,14.32079 -9.995713,4.32507 z"
       id="path108"
       sodipodi:nodetypes="ccccccc" />
    <path
       style="fill:#ff0000;fill-opacity:1;stroke:#000000;stroke-width:1.14855;stroke-linejoin:round;stroke-dasharray:none;paint-order:stroke markers fill"
       d="m 81.989993,57.485396 -0.192229,-16.33915 7.208449,-4.70952 11.245177,6.63177 -4.036729,14.32079 -9.995713,4.32507 z"
       id="path109"
       sodipodi:nodetypes="ccccccc" />
    <path
       style="fill:#ff0000;fill-opacity:1;stroke:#000000;stroke-width:1.14855;stroke-linejoin:round;stroke-dasharray:none;paint-order:stroke markers fill"
       d="m 81.989993,57.485396 -0.192229,-16.33915 7.208449,-4.70952 11.245177,6.63177 -4.036729,14.32079 -9.995713,4.32507 z"
       id="path110"
       sodipodi:nodetypes="ccccccc" />
    <path
       style="fill:#ff0000;fill-opacity:1;stroke:#000000;stroke-width:1.14855;stroke-linejoin:round;stroke-dasharray:none;paint-order:stroke markers fill"
       d="m 81.989993,57.485396 -0.192229,-16.33915 7.208449,-4.70952 11.245177,6.63177 -4.036729,14.32079 -9.995713,4.32507 z"
       id="path111"
       sodipodi:nodetypes="ccccccc" />
    <path
       style="fill:#ff0000;fill-opacity:1;stroke:#000000;stroke-width:1.14855;stroke-linejoin:round;stroke-dasharray:none;paint-order:stroke markers fill"
       d="m 81.989993,57.485396 -0.192229,-16.33915 7.208449,-4.70952 11.245177,6.63177 -4.036729,14.32079 -9.995713,4.32507 z"
       id="path112"
       sodipodi:nodetypes="ccccccc" />
    <path
       style="fill:#ff0000;fill-opacity:1;stroke:#000000;stroke-width:1.14855;stroke-linejoin:round;stroke-dasharray:none;paint-order:stroke markers fill"
       d="m 81.989993,57.485396 -0.192229,-16.33915 7.208449,-4.70952 11.245177,6.63177 -4.036729,14.32079 -9.995713,4.32507 z"
       id="path113"
       sodipodi:nodetypes="ccccccc" />
    <path
       style="fill:#ff0000;fill-opacity:1;stroke:#000000;stroke-width:1.14855;stroke-linejoin:round;stroke-dasharray:none;paint-order:stroke markers fill"
       d="m 81.989993,57.485396 -0.192229,-16.33915 7.208449,-4.70952 11.245177,6.63177 -4.036729,14.32079 -9.995713,4.32507 z"
       id="path114"
       sodipodi:nodetypes="ccccccc" />
    <path
       style="fill:#ff0000;fill-opacity:1;stroke:#000000;stroke-width:1.14855;stroke-linejoin:round;stroke-dasharray:none;paint-order:stroke markers fill"
       d="m 81.989993,57.485396 -0.192229,-16.33915 7.208449,-4.70952 11.245177,6.63177 -4.036729,14.32079 -9.995713,4.32507 z"
       id="path115"
       sodipodi:nodetypes="ccccccc" />
    <path
       style="fill:#ff0000;fill-opacity:1;stroke:#000000;stroke-width:1.14855;stroke-linejoin:round;stroke-dasharray:none;paint-order:stroke markers fill"
       d="m 81.989993,57.485396 -0.192229,-16.33915 7.208449,-4.70952 11.245177,6.63177 -4.036729,14.32079 -9.995713,4.32507 z"
       id="path116"
       sodipodi:nodetypes="ccccccc" />
    <path
       style="fill:#ff0000;fill-opacity:1;stroke:#000000;stroke-width:1.14855;stroke-linejoin:round;stroke-dasharray:none;paint-order:stroke markers fill"
       d="m 81.989993,57.485396 -0.192229,-16.33915 7.208449,-4.70952 11.245177,6.63177 -4.036729,14.32079 -9.995713,4.32507 z"
       id="path117"
       sodipodi:nodetypes="ccccccc" />
    <path
       style="fill:#9955ff;fill-opacity:1;stroke:#000000;stroke-width:1.14855;stroke-linejoin:round;stroke-dasharray:none;paint-order:stroke markers fill"
       d="m 81.989993,57.485396 -0.192229,-16.33915 7.208449,-4.70952 11.245177,6.63177 -4.036729,14.32079 -9.995713,4.32507 z"
       id="path118"
       sodipodi:nodetypes="ccccccc" />
    <path
       style="fill:#d4aa00;fill-opacity:1;stroke:#000000;stroke-width:1.14855;stroke-linejoin:round;stroke-dasharray:none;paint-order:stroke markers fill"
       d="m 37.085588,56.344636 -0.192226,-16.33915 7.208448,-4.70952 11.245181,6.63177 -4.036733,14.32079 -9.995714,4.32507 z"
       id="path119"
       sodipodi:nodetypes="ccccccc" />
    <path
       style="fill:#00ffff;fill-opacity:1;stroke:#000000;stroke-width:1.14855;stroke-linejoin:round;stroke-dasharray:none;paint-order:stroke markers fill"
       d="m 36.878178,119.39747 -0.192226,-16.33915 7.208447,-4.709524 11.245182,6.631784 -4.036733,14.32078 -9.995714,4.32507 z"
       id="path120"
       sodipodi:nodetypes="ccccccc" />
    <path
       style="fill:#d4aa00;fill-opacity:1;stroke:#000000;stroke-width:1.14855;stroke-linejoin:round;stroke-dasharray:none;paint-order:stroke markers fill"
       d="m 37.085588,56.344636 -0.192226,-16.33915 7.208448,-4.70952 11.245181,6.63177 -4.036733,14.32079 -9.995714,4.32507 z"
       id="path121"
       sodipodi:nodetypes="ccccccc" />
    <path
       style="fill:#d4aa00;fill-opacity:1;stroke:#000000;stroke-width:1.14855;stroke-linejoin:round;stroke-dasharray:none;paint-order:stroke markers fill"
       d="m 37.085588,56.344636 -0.192226,-16.33915 7.208448,-4.70952 11.245181,6.63177 -4.036733,14.32079 -9.995714,4.32507 z"
       id="path122"
       sodipodi:nodetypes="ccccccc" />
    <path
       style="fill:#d4aa00;fill-opacity:1;stroke:#000000;stroke-width:1.14855;stroke-linejoin:round;stroke-dasharray:none;paint-order:stroke markers fill"
       d="m 37.085588,56.344636 -0.192226,-16.33915 7.208448,-4.70952 11.245181,6.63177 -4.036733,14.32079 -9.995714,4.32507 z"
       id="path123"
       sodipodi:nodetypes="ccccccc" />
    <path
       style="fill:#d4aa00;fill-opacity:1;stroke:#000000;stroke-width:1.14855;stroke-linejoin:round;stroke-dasharray:none;paint-order:stroke markers fill"
       d="m 37.085588,56.344636 -0.192226,-16.33915 7.208448,-4.70952 11.245181,6.63177 -4.036733,14.32079 -9.995714,4.32507 z"
       id="path124"
       sodipodi:nodetypes="ccccccc" />
    <path
       style="fill:#d4aa00;fill-opacity:1;stroke:#000000;stroke-width:1.14855;stroke-linejoin:round;stroke-dasharray:none;paint-order:stroke markers fill"
       d="m 37.085588,56.344636 -0.192226,-16.33915 7.208448,-4.70952 11.245181,6.63177 -4.036733,14.32079 -9.995714,4.32507 z"
       id="path125"
       sodipodi:nodetypes="ccccccc" />
    <path
       style="fill:#d4aa00;fill-opacity:1;stroke:#000000;stroke-width:1.14855;stroke-linejoin:round;stroke-dasharray:none;paint-order:stroke markers fill"
       d="m 37.085588,56.344636 -0.192226,-16.33915 7.208448,-4.70952 11.245181,6.63177 -4.036733,14.32079 -9.995714,4.32507 z"
       id="path126"
       sodipodi:nodetypes="ccccccc" />
    <path
       style="fill:#d4aa00;fill-opacity:1;stroke:#000000;stroke-width:1.14855;stroke-linejoin:round;stroke-dasharray:none;paint-order:stroke markers fill"
       d="m 37.085588,56.344636 -0.192226,-16.33915 7.208448,-4.70952 11.245181,6.63177 -4.036733,14.32079 -9.995714,4.32507 z"
       id="path127"
       sodipodi:nodetypes="ccccccc" />
    <path
       style="fill:#d4aa00;fill-opacity:1;stroke:#000000;stroke-width:1.14855;stroke-linejoin:round;stroke-dasharray:none;paint-order:stroke markers fill"
       d="m 37.085588,56.344636 -0.192226,-16.33915 7.208448,-4.70952 11.245181,6.63177 -4.036733,14.32079 -9.995714,4.32507 z"
       id="path128"
       sodipodi:nodetypes="ccccccc" />
    <path
       style="fill:#d4aa00;fill-opacity:1;stroke:#000000;stroke-width:1.14855;stroke-linejoin:round;stroke-dasharray:none;paint-order:stroke markers fill"
       d="m 37.085588,56.344636 -0.192226,-16.33915 7.208448,-4.70952 11.245181,6.63177 -4.036733,14.32079 -9.995714,4.32507 z"
       id="path129"
       sodipodi:nodetypes="ccccccc" />
    <path
       style="fill:#d4aa00;fill-opacity:1;stroke:#000000;stroke-width:1.14855;stroke-linejoin:round;stroke-dasharray:none;paint-order:stroke markers fill"
       d="m 37.085588,56.344636 -0.192226,-16.33915 7.208448,-4.70952 11.245181,6.63177 -4.036733,14.32079 -9.995714,4.32507 z"
       id="path130"
       sodipodi:nodetypes="ccccccc" />
    <path
       style="fill:#d4aa00;fill-opacity:1;stroke:#000000;stroke-width:1.14855;stroke-linejoin:round;stroke-dasharray:none;paint-order:stroke markers fill"
       d="m 37.085588,56.344636 -0.192226,-16.33915 7.208448,-4.70952 11.245181,6.63177 -4.036733,14.32079 -9.995714,4.32507 z"
       id="path131"
       sodipodi:nodetypes="ccccccc" />
    <path
       style="fill:#d4aa00;fill-opacity:1;stroke:#000000;stroke-width:1.14855;stroke-linejoin:round;stroke-dasharray:none;paint-order:stroke markers fill"
       d="m 37.085588,56.344636 -0.192226,-16.33915 7.208448,-4.70952 11.245181,6.63177 -4.036733,14.32079 -9.995714,4.32507 z"
       id="path132"
       sodipodi:nodetypes="ccccccc" />
    <path
       style="fill:#d4aa00;fill-opacity:1;stroke:#000000;stroke-width:1.14855;stroke-linejoin:round;stroke-dasharray:none;paint-order:stroke markers fill"
       d="m 37.085588,56.344636 -0.192226,-16.33915 7.208448,-4.70952 11.245181,6.63177 -4.036733,14.32079 -9.995714,4.32507 z"
       id="path133"
       sodipodi:nodetypes="ccccccc" />
    <path
       style="fill:#d4aa00;fill-opacity:1;stroke:#000000;stroke-width:1.14855;stroke-linejoin:round;stroke-dasharray:none;paint-order:stroke markers fill"
       d="m 37.085588,56.344636 -0.192226,-16.33915 7.208448,-4.70952 11.245181,6.63177 -4.036733,14.32079 -9.995714,4.32507 z"
       id="path134"
       sodipodi:nodetypes="ccccccc" />
    <path
       style="fill:#d4aa00;fill-opacity:1;stroke:#000000;stroke-width:1.14855;stroke-linejoin:round;stroke-dasharray:none;paint-order:stroke markers fill"
       d="m 37.085588,56.344636 -0.192226,-16.33915 7.208448,-4.70952 11.245181,6.63177 -4.036733,14.32079 -9.995714,4.32507 z"
       id="path135"
       sodipodi:nodetypes="ccccccc" />
    <path
       style="fill:#d4aa00;fill-opacity:1;stroke:#000000;stroke-width:1.14855;stroke-linejoin:round;stroke-dasharray:none;paint-order:stroke markers fill"
       d="m 37.085588,56.344636 -0.192226,-16.33915 7.208448,-4.70952 11.245181,6.63177 -4.036733,14.32079 -9.995714,4.32507 z"
       id="path136"
       sodipodi:nodetypes="ccccccc" />
    <path
       style="fill:#d4aa00;fill-opacity:1;stroke:#000000;stroke-width:1.14855;stroke-linejoin:round;stroke-dasharray:none;paint-order:stroke markers fill"
       d="m 37.085588,56.344636 -0.192226,-16.33915 7.208448,-4.70952 11.245181,6.63177 -4.036733,14.32079 -9.995714,4.32507 z"
       id="path137"
       sodipodi:nodetypes="ccccccc" />
    <path
       style="fill:#d4aa00;fill-opacity:1;stroke:#000000;stroke-width:1.14855;stroke-linejoin:round;stroke-dasharray:none;paint-order:stroke markers fill"
       d="m 37.085588,56.344636 -0.192226,-16.33915 7.208448,-4.70952 11.245181,6.63177 -4.036733,14.32079 -9.995714,4.32507 z"
       id="path138"
       sodipodi:nodetypes="ccccccc" />
    <path
       style="fill:#d4aa00;fill-opacity:1;stroke:#000000;stroke-width:1.14855;stroke-linejoin:round;stroke-dasharray:none;paint-order:stroke markers fill"
       d="m 37.085588,56.344636 -0.192226,-16.33915 7.208448,-4.70952 11.245181,6.63177 -4.036733,14.32079 -9.995714,4.32507 z"
       id="path139"
       sodipodi:nodetypes="ccccccc" />
    <path
       style="fill:#d4aa00;fill-opacity:1;stroke:#000000;stroke-width:1.14855;stroke-linejoin:round;stroke-dasharray:none;paint-order:stroke markers fill"
       d="m 37.085588,56.344636 -0.192226,-16.33915 7.208448,-4.70952 11.245181,6.63177 -4.036733,14.32079 -9.995714,4.32507 z"
       id="path140"
       sodipodi:nodetypes="ccccccc" />
    <path
       style="fill:#d4aa00;fill-opacity:1;stroke:#000000;stroke-width:1.14855;stroke-linejoin:round;stroke-dasharray:none;paint-order:stroke markers fill"
       d="m 37.085588,56.344636 -0.192226,-16.33915 7.208448,-4.70952 11.245181,6.63177 -4.036733,14.32079 -9.995714,4.32507 z"
       id="path141"
       sodipodi:nodetypes="ccccccc" />
    <path
       style="fill:#d4aa00;fill-opacity:1;stroke:#000000;stroke-width:1.14855;stroke-linejoin:round;stroke-dasharray:none;paint-order:stroke markers fill"
       d="m 37.085588,56.344636 -0.192226,-16.33915 7.208448,-4.70952 11.245181,6.63177 -4.036733,14.32079 -9.995714,4.32507 z"
       id="path142"
       sodipodi:nodetypes="ccccccc" />
    <path
       style="fill:#d4aa00;fill-opacity:1;stroke:#000000;stroke-width:1.14855;stroke-linejoin:round;stroke-dasharray:none;paint-order:stroke markers fill"
       d="m 37.085588,56.344636 -0.192226,-16.33915 7.208448,-4.70952 11.245181,6.63177 -4.036733,14.32079 -9.995714,4.32507 z"
       id="path143"
       sodipodi:nodetypes="ccccccc" />
    <path
       style="fill:#d4aa00;fill-opacity:1;stroke:#000000;stroke-width:1.14855;stroke-linejoin:round;stroke-dasharray:none;paint-order:stroke markers fill"
       d="m 37.085588,56.344636 -0.192226,-16.33915 7.208448,-4.70952 11.245181,6.63177 -4.036733,14.32079 -9.995714,4.32507 z"
       id="path144"
       sodipodi:nodetypes="ccccccc" />
    <path
       style="fill:#d4aa00;fill-opacity:1;stroke:#000000;stroke-width:1.14855;stroke-linejoin:round;stroke-dasharray:none;paint-order:stroke markers fill"
       d="m 37.085588,56.344636 -0.192226,-16.33915 7.208448,-4.70952 11.245181,6.63177 -4.036733,14.32079 -9.995714,4.32507 z"
       id="path145"
       sodipodi:nodetypes="ccccccc" />
    <path
       style="fill:#00ffff;fill-opacity:1;stroke:#000000;stroke-width:1.14855;stroke-linejoin:round;stroke-dasharray:none;paint-order:stroke markers fill"
       d="m 33.157015,117.09596 0.20741,-13.6891 -6.844551,5.39267 z"
       id="path146" />
    <path
       style="fill:#00ffff;fill-opacity:1;stroke:#000000;stroke-width:1.14855;stroke-linejoin:round;stroke-dasharray:none;paint-order:stroke markers fill"
       d="m 35.645942,99.569756 7.051961,-4.14822 -1.659285,-23.12628 -4.459328,4.04451 z"
       id="path147" />
    <path
       style="fill:#00ffff;fill-opacity:1;stroke:#000000;stroke-width:1.14855;stroke-linejoin:round;stroke-dasharray:none;paint-order:stroke markers fill"
       d="m 52.238794,99.362346 4.251918,2.385224 0.20741,-20.429954 -2.488927,1.8667 z"
       id="path148" />
  </g>
</svg>
