<?xml version="1.0" encoding="UTF-8" standalone="no"?>
<!-- Created with Inkscape (http://www.inkscape.org/) -->

<svg
   width="210mm"
   height="297mm"
   viewBox="0 0 210 297"
   version="1.1"
   id="svg1"
   inkscape:version="1.3.2 (091e20e, 2023-11-25, custom)"
   sodipodi:docname="Notas.svg"
   xmlns:inkscape="http://www.inkscape.org/namespaces/inkscape"
   xmlns:sodipodi="http://sodipodi.sourceforge.net/DTD/sodipodi-0.dtd"
   xmlns:xlink="http://www.w3.org/1999/xlink"
   xmlns="http://www.w3.org/2000/svg"
   xmlns:svg="http://www.w3.org/2000/svg">
  <sodipodi:namedview
     id="namedview1"
     pagecolor="#ffffff"
     bordercolor="#999999"
     borderopacity="1"
     inkscape:showpageshadow="2"
     inkscape:pageopacity="0"
     inkscape:pagecheckerboard="0"
     inkscape:deskcolor="#d1d1d1"
     inkscape:document-units="mm"
     inkscape:zoom="0.97890839"
     inkscape:cx="332.51324"
     inkscape:cy="312.08232"
     inkscape:window-width="1920"
     inkscape:window-height="991"
     inkscape:window-x="-9"
     inkscape:window-y="-9"
     inkscape:window-maximized="1"
     inkscape:current-layer="layer1" />
  <defs
     id="defs1">
    <linearGradient
       id="linearGradient75"
       inkscape:collect="always">
      <stop
         style="stop-color:#fcfcfc;stop-opacity:1;"
         offset="0.29452056"
         id="stop75" />
      <stop
         style="stop-color:#ffffff;stop-opacity:0;"
         offset="0.29452056"
         id="stop76" />
    </linearGradient>
    <linearGradient
       id="linearGradient73"
       inkscape:collect="always">
      <stop
         style="stop-color:#ffffff;stop-opacity:1;"
         offset="0"
         id="stop73" />
      <stop
         style="stop-color:#df1717;stop-opacity:0;"
         offset="1"
         id="stop74" />
    </linearGradient>
    <rect
       x="86.831414"
       y="494.93906"
       width="48.523437"
       height="15.833964"
       id="rect70" />
    <rect
       x="96.793847"
       y="764.96033"
       width="186.36427"
       height="34.672423"
       id="rect68" />
    <linearGradient
       inkscape:collect="always"
       xlink:href="#linearGradient73"
       id="linearGradient74"
       x1="115.00872"
       y1="116.62757"
       x2="135.27432"
       y2="116.62757"
       gradientUnits="userSpaceOnUse" />
    <radialGradient
       inkscape:collect="always"
       xlink:href="#linearGradient75"
       id="radialGradient76"
       cx="129.26335"
       cy="113.31659"
       fx="129.26335"
       fy="113.31659"
       r="1.4161407"
       gradientUnits="userSpaceOnUse" />
  </defs>
  <g
     inkscape:label="Capa 1"
     inkscape:groupmode="layer"
     id="layer1">
    <g
       inkscape:groupmode="layer"
       id="layer2"
       inkscape:label="fondo"
       sodipodi:insensitive="true"
       style="display:inline" />
    <g
       id="g72"
       transform="matrix(0.6576006,0,0,0.58315886,29.664538,4.6655164)">
      <path
         sodipodi:type="star"
         style="fill:#ffff00;stroke:#000000;stroke-width:1.32292;stroke-linejoin:round;stroke-dasharray:none;paint-order:stroke markers fill"
         id="path2"
         inkscape:flatsided="true"
         sodipodi:sides="6"
         sodipodi:cx="81.034752"
         sodipodi:cy="72.24324"
         sodipodi:r1="21.023165"
         sodipodi:r2="18.206596"
         sodipodi:arg1="1.0471976"
         sodipodi:arg2="1.5707963"
         inkscape:rounded="0"
         inkscape:randomized="0"
         d="m 91.546333,90.449836 -21.023164,-1e-6 -10.511582,-18.206596 10.511583,-18.206594 21.023165,10e-7 10.511585,18.206595 z"
         transform="matrix(0.49452953,0,0,0.49452953,8.0859499,14.353064)" />
      <path
         sodipodi:type="star"
         style="fill:#aeae00;fill-opacity:1;stroke:#000000;stroke-width:1.32292;stroke-linejoin:round;stroke-dasharray:none;paint-order:stroke markers fill"
         id="path3"
         inkscape:flatsided="true"
         sodipodi:sides="6"
         sodipodi:cx="81.034752"
         sodipodi:cy="72.24324"
         sodipodi:r1="21.023165"
         sodipodi:r2="18.206596"
         sodipodi:arg1="1.0471976"
         sodipodi:arg2="1.5707963"
         inkscape:rounded="0"
         inkscape:randomized="0"
         d="m 91.546333,90.449836 -21.023164,-1e-6 -10.511582,-18.206596 10.511583,-18.206594 21.023165,10e-7 10.511585,18.206595 z"
         transform="matrix(0.49452953,0,0,0.49452953,24.057588,23.723093)" />
      <path
         sodipodi:type="star"
         style="fill:#ffff00;stroke:#000000;stroke-width:1.32292;stroke-linejoin:round;stroke-dasharray:none;paint-order:stroke markers fill"
         id="path4"
         inkscape:flatsided="true"
         sodipodi:sides="6"
         sodipodi:cx="81.034752"
         sodipodi:cy="72.24324"
         sodipodi:r1="21.023165"
         sodipodi:r2="18.206596"
         sodipodi:arg1="1.0471976"
         sodipodi:arg2="1.5707963"
         inkscape:rounded="0"
         inkscape:randomized="0"
         d="m 91.546333,90.449836 -21.023164,-1e-6 -10.511582,-18.206596 10.511583,-18.206594 21.023165,10e-7 10.511585,18.206595 z"
         transform="matrix(0.49452953,0,0,0.49452953,8.0859499,14.353064)" />
      <path
         sodipodi:type="star"
         style="fill:#ffff00;stroke:#000000;stroke-width:1.32292;stroke-linejoin:round;stroke-dasharray:none;paint-order:stroke markers fill"
         id="path5"
         inkscape:flatsided="true"
         sodipodi:sides="6"
         sodipodi:cx="81.034752"
         sodipodi:cy="72.24324"
         sodipodi:r1="21.023165"
         sodipodi:r2="18.206596"
         sodipodi:arg1="1.0471976"
         sodipodi:arg2="1.5707963"
         inkscape:rounded="0"
         inkscape:randomized="0"
         d="m 91.546333,90.449836 -21.023164,-1e-6 -10.511582,-18.206596 10.511583,-18.206594 21.023165,10e-7 10.511585,18.206595 z"
         transform="matrix(0.49452953,0,0,0.49452953,8.0859499,14.353064)" />
      <path
         sodipodi:type="star"
         style="fill:#ffff00;stroke:#000000;stroke-width:1.32292;stroke-linejoin:round;stroke-dasharray:none;paint-order:stroke markers fill"
         id="path6"
         inkscape:flatsided="true"
         sodipodi:sides="6"
         sodipodi:cx="81.034752"
         sodipodi:cy="72.24324"
         sodipodi:r1="21.023165"
         sodipodi:r2="18.206596"
         sodipodi:arg1="1.0471976"
         sodipodi:arg2="1.5707963"
         inkscape:rounded="0"
         inkscape:randomized="0"
         d="m 91.546333,90.449836 -21.023164,-1e-6 -10.511582,-18.206596 10.511583,-18.206594 21.023165,10e-7 10.511585,18.206595 z"
         transform="matrix(0.49452953,0,0,0.49452953,8.0859499,14.353064)" />
      <path
         sodipodi:type="star"
         style="fill:#ffff00;stroke:#000000;stroke-width:1.32292;stroke-linejoin:round;stroke-dasharray:none;paint-order:stroke markers fill"
         id="path7"
         inkscape:flatsided="true"
         sodipodi:sides="6"
         sodipodi:cx="81.034752"
         sodipodi:cy="72.24324"
         sodipodi:r1="21.023165"
         sodipodi:r2="18.206596"
         sodipodi:arg1="1.0471976"
         sodipodi:arg2="1.5707963"
         inkscape:rounded="0"
         inkscape:randomized="0"
         d="m 91.546333,90.449836 -21.023164,-1e-6 -10.511582,-18.206596 10.511583,-18.206594 21.023165,10e-7 10.511585,18.206595 z"
         transform="matrix(0.49452953,0,0,0.49452953,8.0859499,14.353064)" />
      <path
         sodipodi:type="star"
         style="fill:#ffff00;stroke:#000000;stroke-width:1.32292;stroke-linejoin:round;stroke-dasharray:none;paint-order:stroke markers fill"
         id="path8"
         inkscape:flatsided="true"
         sodipodi:sides="6"
         sodipodi:cx="81.034752"
         sodipodi:cy="72.24324"
         sodipodi:r1="21.023165"
         sodipodi:r2="18.206596"
         sodipodi:arg1="1.0471976"
         sodipodi:arg2="1.5707963"
         inkscape:rounded="0"
         inkscape:randomized="0"
         d="m 91.546333,90.449836 -21.023164,-1e-6 -10.511582,-18.206596 10.511583,-18.206594 21.023165,10e-7 10.511585,18.206595 z"
         transform="matrix(0.49452953,0,0,0.49452953,8.0859499,14.353064)" />
      <path
         sodipodi:type="star"
         style="fill:#ffff00;stroke:#000000;stroke-width:1.32292;stroke-linejoin:round;stroke-dasharray:none;paint-order:stroke markers fill"
         id="path9"
         inkscape:flatsided="true"
         sodipodi:sides="6"
         sodipodi:cx="81.034752"
         sodipodi:cy="72.24324"
         sodipodi:r1="21.023165"
         sodipodi:r2="18.206596"
         sodipodi:arg1="1.0471976"
         sodipodi:arg2="1.5707963"
         inkscape:rounded="0"
         inkscape:randomized="0"
         d="m 91.546333,90.449836 -21.023164,-1e-6 -10.511582,-18.206596 10.511583,-18.206594 21.023165,10e-7 10.511585,18.206595 z"
         transform="matrix(0.49452953,0,0,0.49452953,8.0859499,14.353064)" />
      <path
         sodipodi:type="star"
         style="fill:#ffff00;stroke:#000000;stroke-width:1.32292;stroke-linejoin:round;stroke-dasharray:none;paint-order:stroke markers fill"
         id="path10"
         inkscape:flatsided="true"
         sodipodi:sides="6"
         sodipodi:cx="81.034752"
         sodipodi:cy="72.24324"
         sodipodi:r1="21.023165"
         sodipodi:r2="18.206596"
         sodipodi:arg1="1.0471976"
         sodipodi:arg2="1.5707963"
         inkscape:rounded="0"
         inkscape:randomized="0"
         d="m 91.546333,90.449836 -21.023164,-1e-6 -10.511582,-18.206596 10.511583,-18.206594 21.023165,10e-7 10.511585,18.206595 z"
         transform="matrix(0.49452953,0,0,0.49452953,8.0859499,14.353064)" />
      <path
         sodipodi:type="star"
         style="fill:#ffff00;stroke:#000000;stroke-width:1.32292;stroke-linejoin:round;stroke-dasharray:none;paint-order:stroke markers fill"
         id="path11"
         inkscape:flatsided="true"
         sodipodi:sides="6"
         sodipodi:cx="81.034752"
         sodipodi:cy="72.24324"
         sodipodi:r1="21.023165"
         sodipodi:r2="18.206596"
         sodipodi:arg1="1.0471976"
         sodipodi:arg2="1.5707963"
         inkscape:rounded="0"
         inkscape:randomized="0"
         d="m 91.546333,90.449836 -21.023164,-1e-6 -10.511582,-18.206596 10.511583,-18.206594 21.023165,10e-7 10.511585,18.206595 z"
         transform="matrix(0.49452953,0,0,0.49452953,8.0859499,14.353064)" />
      <path
         sodipodi:type="star"
         style="fill:#ffff00;stroke:#000000;stroke-width:1.32292;stroke-linejoin:round;stroke-dasharray:none;paint-order:stroke markers fill"
         id="path12"
         inkscape:flatsided="true"
         sodipodi:sides="6"
         sodipodi:cx="81.034752"
         sodipodi:cy="72.24324"
         sodipodi:r1="21.023165"
         sodipodi:r2="18.206596"
         sodipodi:arg1="1.0471976"
         sodipodi:arg2="1.5707963"
         inkscape:rounded="0"
         inkscape:randomized="0"
         d="m 91.546333,90.449836 -21.023164,-1e-6 -10.511582,-18.206596 10.511583,-18.206594 21.023165,10e-7 10.511585,18.206595 z"
         transform="matrix(0.49452953,0,0,0.49452953,8.0859499,14.353064)" />
      <path
         sodipodi:type="star"
         style="fill:#ffff00;stroke:#000000;stroke-width:1.32292;stroke-linejoin:round;stroke-dasharray:none;paint-order:stroke markers fill"
         id="path13"
         inkscape:flatsided="true"
         sodipodi:sides="6"
         sodipodi:cx="81.034752"
         sodipodi:cy="72.24324"
         sodipodi:r1="21.023165"
         sodipodi:r2="18.206596"
         sodipodi:arg1="1.0471976"
         sodipodi:arg2="1.5707963"
         inkscape:rounded="0"
         inkscape:randomized="0"
         d="m 91.546333,90.449836 -21.023164,-1e-6 -10.511582,-18.206596 10.511583,-18.206594 21.023165,10e-7 10.511585,18.206595 z"
         transform="matrix(0.49452953,0,0,0.49452953,8.0859499,14.353064)" />
      <path
         sodipodi:type="star"
         style="fill:#ffff00;stroke:#000000;stroke-width:1.32292;stroke-linejoin:round;stroke-dasharray:none;paint-order:stroke markers fill"
         id="path14"
         inkscape:flatsided="true"
         sodipodi:sides="6"
         sodipodi:cx="81.034752"
         sodipodi:cy="72.24324"
         sodipodi:r1="21.023165"
         sodipodi:r2="18.206596"
         sodipodi:arg1="1.0471976"
         sodipodi:arg2="1.5707963"
         inkscape:rounded="0"
         inkscape:randomized="0"
         d="m 91.546333,90.449836 -21.023164,-1e-6 -10.511582,-18.206596 10.511583,-18.206594 21.023165,10e-7 10.511585,18.206595 z"
         transform="matrix(0.49452953,0,0,0.49452953,8.0859499,14.353064)" />
      <path
         sodipodi:type="star"
         style="fill:#ffff00;stroke:#000000;stroke-width:1.32292;stroke-linejoin:round;stroke-dasharray:none;paint-order:stroke markers fill"
         id="path15"
         inkscape:flatsided="true"
         sodipodi:sides="6"
         sodipodi:cx="81.034752"
         sodipodi:cy="72.24324"
         sodipodi:r1="21.023165"
         sodipodi:r2="18.206596"
         sodipodi:arg1="1.0471976"
         sodipodi:arg2="1.5707963"
         inkscape:rounded="0"
         inkscape:randomized="0"
         d="m 91.546333,90.449836 -21.023164,-1e-6 -10.511582,-18.206596 10.511583,-18.206594 21.023165,10e-7 10.511585,18.206595 z"
         transform="matrix(0.49452953,0,0,0.49452953,8.0859499,14.353064)" />
      <path
         sodipodi:type="star"
         style="fill:#ffff00;stroke:#000000;stroke-width:1.32292;stroke-linejoin:round;stroke-dasharray:none;paint-order:stroke markers fill"
         id="path16"
         inkscape:flatsided="true"
         sodipodi:sides="6"
         sodipodi:cx="81.034752"
         sodipodi:cy="72.24324"
         sodipodi:r1="21.023165"
         sodipodi:r2="18.206596"
         sodipodi:arg1="1.0471976"
         sodipodi:arg2="1.5707963"
         inkscape:rounded="0"
         inkscape:randomized="0"
         d="m 91.546333,90.449836 -21.023164,-1e-6 -10.511582,-18.206596 10.511583,-18.206594 21.023165,10e-7 10.511585,18.206595 z"
         transform="matrix(0.49452953,0,0,0.49452953,8.0859499,14.353064)" />
      <path
         sodipodi:type="star"
         style="fill:#ffff00;stroke:#000000;stroke-width:1.32292;stroke-linejoin:round;stroke-dasharray:none;paint-order:stroke markers fill"
         id="path17"
         inkscape:flatsided="true"
         sodipodi:sides="6"
         sodipodi:cx="81.034752"
         sodipodi:cy="72.24324"
         sodipodi:r1="21.023165"
         sodipodi:r2="18.206596"
         sodipodi:arg1="1.0471976"
         sodipodi:arg2="1.5707963"
         inkscape:rounded="0"
         inkscape:randomized="0"
         d="m 91.546333,90.449836 -21.023164,-1e-6 -10.511582,-18.206596 10.511583,-18.206594 21.023165,10e-7 10.511585,18.206595 z"
         transform="matrix(0.49452953,0,0,0.49452953,8.0859499,14.353064)" />
      <path
         sodipodi:type="star"
         style="fill:#ffff00;stroke:#000000;stroke-width:1.32292;stroke-linejoin:round;stroke-dasharray:none;paint-order:stroke markers fill"
         id="path18"
         inkscape:flatsided="true"
         sodipodi:sides="6"
         sodipodi:cx="81.034752"
         sodipodi:cy="72.24324"
         sodipodi:r1="21.023165"
         sodipodi:r2="18.206596"
         sodipodi:arg1="1.0471976"
         sodipodi:arg2="1.5707963"
         inkscape:rounded="0"
         inkscape:randomized="0"
         d="m 91.546333,90.449836 -21.023164,-1e-6 -10.511582,-18.206596 10.511583,-18.206594 21.023165,10e-7 10.511585,18.206595 z"
         transform="matrix(0.49452953,0,0,0.49452953,8.0859499,14.353064)" />
      <path
         sodipodi:type="star"
         style="fill:#ffff00;stroke:#000000;stroke-width:1.32292;stroke-linejoin:round;stroke-dasharray:none;paint-order:stroke markers fill"
         id="path19"
         inkscape:flatsided="true"
         sodipodi:sides="6"
         sodipodi:cx="81.034752"
         sodipodi:cy="72.24324"
         sodipodi:r1="21.023165"
         sodipodi:r2="18.206596"
         sodipodi:arg1="1.0471976"
         sodipodi:arg2="1.5707963"
         inkscape:rounded="0"
         inkscape:randomized="0"
         d="m 91.546333,90.449836 -21.023164,-1e-6 -10.511582,-18.206596 10.511583,-18.206594 21.023165,10e-7 10.511585,18.206595 z"
         transform="matrix(0.49452953,0,0,0.49452953,8.0859499,14.353064)" />
      <path
         sodipodi:type="star"
         style="fill:#ffff00;stroke:#000000;stroke-width:1.32292;stroke-linejoin:round;stroke-dasharray:none;paint-order:stroke markers fill"
         id="path20"
         inkscape:flatsided="true"
         sodipodi:sides="6"
         sodipodi:cx="81.034752"
         sodipodi:cy="72.24324"
         sodipodi:r1="21.023165"
         sodipodi:r2="18.206596"
         sodipodi:arg1="1.0471976"
         sodipodi:arg2="1.5707963"
         inkscape:rounded="0"
         inkscape:randomized="0"
         d="m 91.546333,90.449836 -21.023164,-1e-6 -10.511582,-18.206596 10.511583,-18.206594 21.023165,10e-7 10.511585,18.206595 z"
         transform="matrix(0.49452953,0,0,0.49452953,8.0859499,14.353064)" />
      <path
         sodipodi:type="star"
         style="fill:#ffff00;stroke:#000000;stroke-width:1.32292;stroke-linejoin:round;stroke-dasharray:none;paint-order:stroke markers fill"
         id="path21"
         inkscape:flatsided="true"
         sodipodi:sides="6"
         sodipodi:cx="81.034752"
         sodipodi:cy="72.24324"
         sodipodi:r1="21.023165"
         sodipodi:r2="18.206596"
         sodipodi:arg1="1.0471976"
         sodipodi:arg2="1.5707963"
         inkscape:rounded="0"
         inkscape:randomized="0"
         d="m 91.546333,90.449836 -21.023164,-1e-6 -10.511582,-18.206596 10.511583,-18.206594 21.023165,10e-7 10.511585,18.206595 z"
         transform="matrix(0.49452953,0,0,0.49452953,8.0859499,14.353064)" />
      <path
         sodipodi:type="star"
         style="fill:#ffff00;stroke:#000000;stroke-width:1.32292;stroke-linejoin:round;stroke-dasharray:none;paint-order:stroke markers fill"
         id="path22"
         inkscape:flatsided="true"
         sodipodi:sides="6"
         sodipodi:cx="81.034752"
         sodipodi:cy="72.24324"
         sodipodi:r1="21.023165"
         sodipodi:r2="18.206596"
         sodipodi:arg1="1.0471976"
         sodipodi:arg2="1.5707963"
         inkscape:rounded="0"
         inkscape:randomized="0"
         d="m 91.546333,90.449836 -21.023164,-1e-6 -10.511582,-18.206596 10.511583,-18.206594 21.023165,10e-7 10.511585,18.206595 z"
         transform="matrix(0.49452953,0,0,0.49452953,8.0859499,14.353064)" />
      <path
         sodipodi:type="star"
         style="fill:#ffff00;stroke:#000000;stroke-width:1.32292;stroke-linejoin:round;stroke-dasharray:none;paint-order:stroke markers fill"
         id="path23"
         inkscape:flatsided="true"
         sodipodi:sides="6"
         sodipodi:cx="81.034752"
         sodipodi:cy="72.24324"
         sodipodi:r1="21.023165"
         sodipodi:r2="18.206596"
         sodipodi:arg1="1.0471976"
         sodipodi:arg2="1.5707963"
         inkscape:rounded="0"
         inkscape:randomized="0"
         d="m 91.546333,90.449836 -21.023164,-1e-6 -10.511582,-18.206596 10.511583,-18.206594 21.023165,10e-7 10.511585,18.206595 z"
         transform="matrix(0.49452953,0,0,0.49452953,8.0859499,14.353064)" />
      <path
         sodipodi:type="star"
         style="fill:#ffff00;stroke:#000000;stroke-width:1.32292;stroke-linejoin:round;stroke-dasharray:none;paint-order:stroke markers fill"
         id="path24"
         inkscape:flatsided="true"
         sodipodi:sides="6"
         sodipodi:cx="81.034752"
         sodipodi:cy="72.24324"
         sodipodi:r1="21.023165"
         sodipodi:r2="18.206596"
         sodipodi:arg1="1.0471976"
         sodipodi:arg2="1.5707963"
         inkscape:rounded="0"
         inkscape:randomized="0"
         d="m 91.546333,90.449836 -21.023164,-1e-6 -10.511582,-18.206596 10.511583,-18.206594 21.023165,10e-7 10.511585,18.206595 z"
         transform="matrix(0.49452953,0,0,0.49452953,8.0859499,14.353064)" />
      <path
         sodipodi:type="star"
         style="fill:#ffff00;stroke:#000000;stroke-width:1.32292;stroke-linejoin:round;stroke-dasharray:none;paint-order:stroke markers fill"
         id="path25"
         inkscape:flatsided="true"
         sodipodi:sides="6"
         sodipodi:cx="81.034752"
         sodipodi:cy="72.24324"
         sodipodi:r1="21.023165"
         sodipodi:r2="18.206596"
         sodipodi:arg1="1.0471976"
         sodipodi:arg2="1.5707963"
         inkscape:rounded="0"
         inkscape:randomized="0"
         d="m 91.546333,90.449836 -21.023164,-1e-6 -10.511582,-18.206596 10.511583,-18.206594 21.023165,10e-7 10.511585,18.206595 z"
         transform="matrix(0.49452953,0,0,0.49452953,8.0859499,14.353064)" />
      <path
         sodipodi:type="star"
         style="fill:#ffff00;stroke:#000000;stroke-width:1.32292;stroke-linejoin:round;stroke-dasharray:none;paint-order:stroke markers fill"
         id="path26"
         inkscape:flatsided="true"
         sodipodi:sides="6"
         sodipodi:cx="81.034752"
         sodipodi:cy="72.24324"
         sodipodi:r1="21.023165"
         sodipodi:r2="18.206596"
         sodipodi:arg1="1.0471976"
         sodipodi:arg2="1.5707963"
         inkscape:rounded="0"
         inkscape:randomized="0"
         d="m 91.546333,90.449836 -21.023164,-1e-6 -10.511582,-18.206596 10.511583,-18.206594 21.023165,10e-7 10.511585,18.206595 z"
         transform="matrix(0.49452953,0,0,0.49452953,8.0859499,14.353064)" />
      <path
         sodipodi:type="star"
         style="fill:#ffff00;stroke:#000000;stroke-width:1.32292;stroke-linejoin:round;stroke-dasharray:none;paint-order:stroke markers fill"
         id="path27"
         inkscape:flatsided="true"
         sodipodi:sides="6"
         sodipodi:cx="81.034752"
         sodipodi:cy="72.24324"
         sodipodi:r1="21.023165"
         sodipodi:r2="18.206596"
         sodipodi:arg1="1.0471976"
         sodipodi:arg2="1.5707963"
         inkscape:rounded="0"
         inkscape:randomized="0"
         d="m 91.546333,90.449836 -21.023164,-1e-6 -10.511582,-18.206596 10.511583,-18.206594 21.023165,10e-7 10.511585,18.206595 z"
         transform="matrix(0.49452953,0,0,0.49452953,8.0859499,14.353064)" />
      <path
         sodipodi:type="star"
         style="fill:#ffff00;stroke:#000000;stroke-width:1.32292;stroke-linejoin:round;stroke-dasharray:none;paint-order:stroke markers fill"
         id="path28"
         inkscape:flatsided="true"
         sodipodi:sides="6"
         sodipodi:cx="81.034752"
         sodipodi:cy="72.24324"
         sodipodi:r1="21.023165"
         sodipodi:r2="18.206596"
         sodipodi:arg1="1.0471976"
         sodipodi:arg2="1.5707963"
         inkscape:rounded="0"
         inkscape:randomized="0"
         d="m 91.546333,90.449836 -21.023164,-1e-6 -10.511582,-18.206596 10.511583,-18.206594 21.023165,10e-7 10.511585,18.206595 z"
         transform="matrix(0.49452953,0,0,0.49452953,8.0859499,14.353064)" />
      <path
         sodipodi:type="star"
         style="fill:#ffff00;stroke:#000000;stroke-width:1.32292;stroke-linejoin:round;stroke-dasharray:none;paint-order:stroke markers fill"
         id="path29"
         inkscape:flatsided="true"
         sodipodi:sides="6"
         sodipodi:cx="81.034752"
         sodipodi:cy="72.24324"
         sodipodi:r1="21.023165"
         sodipodi:r2="18.206596"
         sodipodi:arg1="1.0471976"
         sodipodi:arg2="1.5707963"
         inkscape:rounded="0"
         inkscape:randomized="0"
         d="m 91.546333,90.449836 -21.023164,-1e-6 -10.511582,-18.206596 10.511583,-18.206594 21.023165,10e-7 10.511585,18.206595 z"
         transform="matrix(0.49452953,0,0,0.49452953,8.0859499,14.353064)" />
      <path
         sodipodi:type="star"
         style="fill:#ffff00;stroke:#000000;stroke-width:1.32292;stroke-linejoin:round;stroke-dasharray:none;paint-order:stroke markers fill"
         id="path30"
         inkscape:flatsided="true"
         sodipodi:sides="6"
         sodipodi:cx="81.034752"
         sodipodi:cy="72.24324"
         sodipodi:r1="21.023165"
         sodipodi:r2="18.206596"
         sodipodi:arg1="1.0471976"
         sodipodi:arg2="1.5707963"
         inkscape:rounded="0"
         inkscape:randomized="0"
         d="m 91.546333,90.449836 -21.023164,-1e-6 -10.511582,-18.206596 10.511583,-18.206594 21.023165,10e-7 10.511585,18.206595 z"
         transform="matrix(0.49452953,0,0,0.49452953,8.0859499,14.353064)" />
      <path
         sodipodi:type="star"
         style="fill:#ffff00;stroke:#000000;stroke-width:1.32292;stroke-linejoin:round;stroke-dasharray:none;paint-order:stroke markers fill"
         id="path31"
         inkscape:flatsided="true"
         sodipodi:sides="6"
         sodipodi:cx="81.034752"
         sodipodi:cy="72.24324"
         sodipodi:r1="21.023165"
         sodipodi:r2="18.206596"
         sodipodi:arg1="1.0471976"
         sodipodi:arg2="1.5707963"
         inkscape:rounded="0"
         inkscape:randomized="0"
         d="m 91.546333,90.449836 -21.023164,-1e-6 -10.511582,-18.206596 10.511583,-18.206594 21.023165,10e-7 10.511585,18.206595 z"
         transform="matrix(0.49452953,0,0,0.49452953,8.0859499,14.353064)" />
      <path
         sodipodi:type="star"
         style="fill:#ffff00;stroke:#000000;stroke-width:1.32292;stroke-linejoin:round;stroke-dasharray:none;paint-order:stroke markers fill"
         id="path32"
         inkscape:flatsided="true"
         sodipodi:sides="6"
         sodipodi:cx="81.034752"
         sodipodi:cy="72.24324"
         sodipodi:r1="21.023165"
         sodipodi:r2="18.206596"
         sodipodi:arg1="1.0471976"
         sodipodi:arg2="1.5707963"
         inkscape:rounded="0"
         inkscape:randomized="0"
         d="m 91.546333,90.449836 -21.023164,-1e-6 -10.511582,-18.206596 10.511583,-18.206594 21.023165,10e-7 10.511585,18.206595 z"
         transform="matrix(0.49452953,0,0,0.49452953,8.0859499,14.353064)" />
      <path
         sodipodi:type="star"
         style="fill:#ffff00;stroke:#000000;stroke-width:1.32292;stroke-linejoin:round;stroke-dasharray:none;paint-order:stroke markers fill"
         id="path33"
         inkscape:flatsided="true"
         sodipodi:sides="6"
         sodipodi:cx="81.034752"
         sodipodi:cy="72.24324"
         sodipodi:r1="21.023165"
         sodipodi:r2="18.206596"
         sodipodi:arg1="1.0471976"
         sodipodi:arg2="1.5707963"
         inkscape:rounded="0"
         inkscape:randomized="0"
         d="m 91.546333,90.449836 -21.023164,-1e-6 -10.511582,-18.206596 10.511583,-18.206594 21.023165,10e-7 10.511585,18.206595 z"
         transform="matrix(0.49452953,0,0,0.49452953,8.0859499,14.353064)" />
      <path
         sodipodi:type="star"
         style="fill:#ffff00;stroke:#000000;stroke-width:1.32292;stroke-linejoin:round;stroke-dasharray:none;paint-order:stroke markers fill"
         id="path34"
         inkscape:flatsided="true"
         sodipodi:sides="6"
         sodipodi:cx="81.034752"
         sodipodi:cy="72.24324"
         sodipodi:r1="21.023165"
         sodipodi:r2="18.206596"
         sodipodi:arg1="1.0471976"
         sodipodi:arg2="1.5707963"
         inkscape:rounded="0"
         inkscape:randomized="0"
         d="m 91.546333,90.449836 -21.023164,-1e-6 -10.511582,-18.206596 10.511583,-18.206594 21.023165,10e-7 10.511585,18.206595 z"
         transform="matrix(0.49452953,0,0,0.49452953,8.0859499,14.353064)" />
      <path
         sodipodi:type="star"
         style="fill:#ffff00;stroke:#000000;stroke-width:1.32292;stroke-linejoin:round;stroke-dasharray:none;paint-order:stroke markers fill"
         id="path35"
         inkscape:flatsided="true"
         sodipodi:sides="6"
         sodipodi:cx="81.034752"
         sodipodi:cy="72.24324"
         sodipodi:r1="21.023165"
         sodipodi:r2="18.206596"
         sodipodi:arg1="1.0471976"
         sodipodi:arg2="1.5707963"
         inkscape:rounded="0"
         inkscape:randomized="0"
         d="m 91.546333,90.449836 -21.023164,-1e-6 -10.511582,-18.206596 10.511583,-18.206594 21.023165,10e-7 10.511585,18.206595 z"
         transform="matrix(0.49452953,0,0,0.49452953,8.0859499,14.353064)" />
      <path
         sodipodi:type="star"
         style="fill:#ffff00;stroke:#000000;stroke-width:1.32292;stroke-linejoin:round;stroke-dasharray:none;paint-order:stroke markers fill"
         id="path36"
         inkscape:flatsided="true"
         sodipodi:sides="6"
         sodipodi:cx="81.034752"
         sodipodi:cy="72.24324"
         sodipodi:r1="21.023165"
         sodipodi:r2="18.206596"
         sodipodi:arg1="1.0471976"
         sodipodi:arg2="1.5707963"
         inkscape:rounded="0"
         inkscape:randomized="0"
         d="m 91.546333,90.449836 -21.023164,-1e-6 -10.511582,-18.206596 10.511583,-18.206594 21.023165,10e-7 10.511585,18.206595 z"
         transform="matrix(0.49452953,0,0,0.49452953,8.0859499,14.353064)" />
      <path
         sodipodi:type="star"
         style="fill:#ffff00;stroke:#000000;stroke-width:1.32292;stroke-linejoin:round;stroke-dasharray:none;paint-order:stroke markers fill"
         id="path37"
         inkscape:flatsided="true"
         sodipodi:sides="6"
         sodipodi:cx="81.034752"
         sodipodi:cy="72.24324"
         sodipodi:r1="21.023165"
         sodipodi:r2="18.206596"
         sodipodi:arg1="1.0471976"
         sodipodi:arg2="1.5707963"
         inkscape:rounded="0"
         inkscape:randomized="0"
         d="m 91.546333,90.449836 -21.023164,-1e-6 -10.511582,-18.206596 10.511583,-18.206594 21.023165,10e-7 10.511585,18.206595 z"
         transform="matrix(0.49452953,0,0,0.49452953,8.0859499,14.353064)" />
      <path
         sodipodi:type="star"
         style="fill:#ffff00;stroke:#000000;stroke-width:1.32292;stroke-linejoin:round;stroke-dasharray:none;paint-order:stroke markers fill"
         id="path38"
         inkscape:flatsided="true"
         sodipodi:sides="6"
         sodipodi:cx="81.034752"
         sodipodi:cy="72.24324"
         sodipodi:r1="21.023165"
         sodipodi:r2="18.206596"
         sodipodi:arg1="1.0471976"
         sodipodi:arg2="1.5707963"
         inkscape:rounded="0"
         inkscape:randomized="0"
         d="m 91.546333,90.449836 -21.023164,-1e-6 -10.511582,-18.206596 10.511583,-18.206594 21.023165,10e-7 10.511585,18.206595 z"
         transform="matrix(0.49452953,0,0,0.49452953,8.0859499,14.353064)" />
      <path
         sodipodi:type="star"
         style="fill:#ffff00;stroke:#000000;stroke-width:1.32292;stroke-linejoin:round;stroke-dasharray:none;paint-order:stroke markers fill"
         id="path39"
         inkscape:flatsided="true"
         sodipodi:sides="6"
         sodipodi:cx="81.034752"
         sodipodi:cy="72.24324"
         sodipodi:r1="21.023165"
         sodipodi:r2="18.206596"
         sodipodi:arg1="1.0471976"
         sodipodi:arg2="1.5707963"
         inkscape:rounded="0"
         inkscape:randomized="0"
         d="m 91.546333,90.449836 -21.023164,-1e-6 -10.511582,-18.206596 10.511583,-18.206594 21.023165,10e-7 10.511585,18.206595 z"
         transform="matrix(0.49452953,0,0,0.49452953,8.0859499,14.353064)" />
      <path
         sodipodi:type="star"
         style="fill:#ffff00;stroke:#000000;stroke-width:1.32292;stroke-linejoin:round;stroke-dasharray:none;paint-order:stroke markers fill"
         id="path40"
         inkscape:flatsided="true"
         sodipodi:sides="6"
         sodipodi:cx="81.034752"
         sodipodi:cy="72.24324"
         sodipodi:r1="21.023165"
         sodipodi:r2="18.206596"
         sodipodi:arg1="1.0471976"
         sodipodi:arg2="1.5707963"
         inkscape:rounded="0"
         inkscape:randomized="0"
         d="m 91.546333,90.449836 -21.023164,-1e-6 -10.511582,-18.206596 10.511583,-18.206594 21.023165,10e-7 10.511585,18.206595 z"
         transform="matrix(0.49452953,0,0,0.49452953,8.0859499,14.353064)" />
      <path
         sodipodi:type="star"
         style="fill:#ffff00;stroke:#000000;stroke-width:1.32292;stroke-linejoin:round;stroke-dasharray:none;paint-order:stroke markers fill"
         id="path41"
         inkscape:flatsided="true"
         sodipodi:sides="6"
         sodipodi:cx="81.034752"
         sodipodi:cy="72.24324"
         sodipodi:r1="21.023165"
         sodipodi:r2="18.206596"
         sodipodi:arg1="1.0471976"
         sodipodi:arg2="1.5707963"
         inkscape:rounded="0"
         inkscape:randomized="0"
         d="m 91.546333,90.449836 -21.023164,-1e-6 -10.511582,-18.206596 10.511583,-18.206594 21.023165,10e-7 10.511585,18.206595 z"
         transform="matrix(0.49452953,0,0,0.49452953,8.0859499,14.353064)" />
      <path
         sodipodi:type="star"
         style="fill:#ffff00;stroke:#000000;stroke-width:1.32292;stroke-linejoin:round;stroke-dasharray:none;paint-order:stroke markers fill"
         id="path42"
         inkscape:flatsided="true"
         sodipodi:sides="6"
         sodipodi:cx="81.034752"
         sodipodi:cy="72.24324"
         sodipodi:r1="21.023165"
         sodipodi:r2="18.206596"
         sodipodi:arg1="1.0471976"
         sodipodi:arg2="1.5707963"
         inkscape:rounded="0"
         inkscape:randomized="0"
         d="m 91.546333,90.449836 -21.023164,-1e-6 -10.511582,-18.206596 10.511583,-18.206594 21.023165,10e-7 10.511585,18.206595 z"
         transform="matrix(0.49452953,0,0,0.49452953,8.0859499,14.353064)" />
      <path
         sodipodi:type="star"
         style="fill:#ffff00;stroke:#000000;stroke-width:1.32292;stroke-linejoin:round;stroke-dasharray:none;paint-order:stroke markers fill"
         id="path43"
         inkscape:flatsided="true"
         sodipodi:sides="6"
         sodipodi:cx="81.034752"
         sodipodi:cy="72.24324"
         sodipodi:r1="21.023165"
         sodipodi:r2="18.206596"
         sodipodi:arg1="1.0471976"
         sodipodi:arg2="1.5707963"
         inkscape:rounded="0"
         inkscape:randomized="0"
         d="m 91.546333,90.449836 -21.023164,-1e-6 -10.511582,-18.206596 10.511583,-18.206594 21.023165,10e-7 10.511585,18.206595 z"
         transform="matrix(0.49452953,0,0,0.49452953,8.0859499,14.353064)" />
      <path
         sodipodi:type="star"
         style="fill:#aeae00;fill-opacity:1;stroke:#000000;stroke-width:1.32292;stroke-linejoin:round;stroke-dasharray:none;paint-order:stroke markers fill"
         id="path44"
         inkscape:flatsided="true"
         sodipodi:sides="6"
         sodipodi:cx="81.034752"
         sodipodi:cy="72.24324"
         sodipodi:r1="21.023165"
         sodipodi:r2="18.206596"
         sodipodi:arg1="1.0471976"
         sodipodi:arg2="1.5707963"
         inkscape:rounded="0"
         inkscape:randomized="0"
         d="m 91.546333,90.449836 -21.023164,-1e-6 -10.511582,-18.206596 10.511583,-18.206594 21.023165,10e-7 10.511585,18.206595 z"
         transform="matrix(0.49452953,0,0,0.49452953,8.2279195,32.700038)" />
      <path
         sodipodi:type="star"
         style="fill:#ffff00;stroke:#000000;stroke-width:1.32292;stroke-linejoin:round;stroke-dasharray:none;paint-order:stroke markers fill"
         id="path53"
         inkscape:flatsided="true"
         sodipodi:sides="6"
         sodipodi:cx="81.034752"
         sodipodi:cy="72.24324"
         sodipodi:r1="21.023165"
         sodipodi:r2="18.206596"
         sodipodi:arg1="1.0471976"
         sodipodi:arg2="1.5707963"
         inkscape:rounded="0"
         inkscape:randomized="0"
         d="m 91.546333,90.449836 -21.023164,-1e-6 -10.511582,-18.206596 10.511583,-18.206594 21.023165,10e-7 10.511585,18.206595 z"
         transform="matrix(0.49452953,0,0,0.49452953,-7.934555,42.027657)" />
      <path
         sodipodi:type="star"
         style="fill:#ffff00;stroke:#000000;stroke-width:1.32292;stroke-linejoin:round;stroke-dasharray:none;paint-order:stroke markers fill"
         id="path54"
         inkscape:flatsided="true"
         sodipodi:sides="6"
         sodipodi:cx="81.034752"
         sodipodi:cy="72.24324"
         sodipodi:r1="21.023165"
         sodipodi:r2="18.206596"
         sodipodi:arg1="1.0471976"
         sodipodi:arg2="1.5707963"
         inkscape:rounded="0"
         inkscape:randomized="0"
         d="m 91.546333,90.449836 -21.023164,-1e-6 -10.511582,-18.206596 10.511583,-18.206594 21.023165,10e-7 10.511585,18.206595 z"
         transform="matrix(0.49452953,0,0,0.49452953,-23.193536,14.922887)" />
      <path
         sodipodi:type="star"
         style="fill:#ffff00;stroke:#000000;stroke-width:1.32292;stroke-linejoin:round;stroke-dasharray:none;paint-order:stroke markers fill"
         id="path55"
         inkscape:flatsided="true"
         sodipodi:sides="6"
         sodipodi:cx="81.034752"
         sodipodi:cy="72.24324"
         sodipodi:r1="21.023165"
         sodipodi:r2="18.206596"
         sodipodi:arg1="1.0471976"
         sodipodi:arg2="1.5707963"
         inkscape:rounded="0"
         inkscape:randomized="0"
         d="m 91.546333,90.449836 -21.023164,-1e-6 -10.511582,-18.206596 10.511583,-18.206594 21.023165,10e-7 10.511585,18.206595 z"
         transform="matrix(0.49452953,0,0,0.49452953,23.99731,41.734962)" />
      <path
         sodipodi:type="star"
         style="fill:#ffff00;stroke:#000000;stroke-width:1.32292;stroke-linejoin:round;stroke-dasharray:none;paint-order:stroke markers fill"
         id="path56"
         inkscape:flatsided="true"
         sodipodi:sides="6"
         sodipodi:cx="81.034752"
         sodipodi:cy="72.24324"
         sodipodi:r1="21.023165"
         sodipodi:r2="18.206596"
         sodipodi:arg1="1.0471976"
         sodipodi:arg2="1.5707963"
         inkscape:rounded="0"
         inkscape:randomized="0"
         d="m 91.546333,90.449836 -21.023164,-1e-6 -10.511582,-18.206596 10.511583,-18.206594 21.023165,10e-7 10.511585,18.206595 z"
         transform="matrix(0.49452953,0,0,0.49452953,-7.6333909,-13.286153)" />
      <path
         sodipodi:type="star"
         style="fill:#ffff00;stroke:#000000;stroke-width:1.32292;stroke-linejoin:round;stroke-dasharray:none;paint-order:stroke markers fill"
         id="path57"
         inkscape:flatsided="true"
         sodipodi:sides="6"
         sodipodi:cx="81.034752"
         sodipodi:cy="72.24324"
         sodipodi:r1="21.023165"
         sodipodi:r2="18.206596"
         sodipodi:arg1="1.0471976"
         sodipodi:arg2="1.5707963"
         inkscape:rounded="0"
         inkscape:randomized="0"
         d="m 91.546333,90.449836 -21.023164,-1e-6 -10.511582,-18.206596 10.511583,-18.206594 21.023165,10e-7 10.511585,18.206595 z"
         transform="matrix(0.49452953,0,0,0.49452953,39.749763,14.119782)" />
      <path
         sodipodi:type="star"
         style="fill:#ffff00;stroke:#000000;stroke-width:1.32292;stroke-linejoin:round;stroke-dasharray:none;paint-order:stroke markers fill"
         id="path58"
         inkscape:flatsided="true"
         sodipodi:sides="6"
         sodipodi:cx="81.034752"
         sodipodi:cy="72.24324"
         sodipodi:r1="21.023165"
         sodipodi:r2="18.206596"
         sodipodi:arg1="1.0471976"
         sodipodi:arg2="1.5707963"
         inkscape:rounded="0"
         inkscape:randomized="0"
         d="m 91.546333,90.449836 -21.023164,-1e-6 -10.511582,-18.206596 10.511583,-18.206594 21.023165,10e-7 10.511585,18.206595 z"
         transform="matrix(0.49452953,0,0,0.49452953,24.390393,-12.984988)" />
      <path
         sodipodi:type="star"
         style="fill:#aeae00;fill-opacity:1;stroke:#000000;stroke-width:1.32292;stroke-linejoin:round;stroke-dasharray:none;paint-order:stroke markers fill"
         id="path59"
         inkscape:flatsided="true"
         sodipodi:sides="6"
         sodipodi:cx="81.034752"
         sodipodi:cy="72.24324"
         sodipodi:r1="21.023165"
         sodipodi:r2="18.206596"
         sodipodi:arg1="1.0471976"
         sodipodi:arg2="1.5707963"
         inkscape:rounded="0"
         inkscape:randomized="0"
         d="m 91.546333,90.449836 -21.023164,-1e-6 -10.511582,-18.206596 10.511583,-18.206594 21.023165,10e-7 10.511585,18.206595 z"
         transform="matrix(0.49452953,0,0,0.49452953,8.1275315,-4.1508409)" />
      <path
         sodipodi:type="star"
         style="fill:#aeae00;fill-opacity:1;stroke:#000000;stroke-width:1.32292;stroke-linejoin:round;stroke-dasharray:none;paint-order:stroke markers fill"
         id="path60"
         inkscape:flatsided="true"
         sodipodi:sides="6"
         sodipodi:cx="81.034752"
         sodipodi:cy="72.24324"
         sodipodi:r1="21.023165"
         sodipodi:r2="18.206596"
         sodipodi:arg1="1.0471976"
         sodipodi:arg2="1.5707963"
         inkscape:rounded="0"
         inkscape:randomized="0"
         d="m 91.546333,90.449836 -21.023164,-1e-6 -10.511582,-18.206596 10.511583,-18.206594 21.023165,10e-7 10.511585,18.206595 z"
         transform="matrix(0.49452953,0,0,0.49452953,-8.0276603,5.266977)" />
      <path
         sodipodi:type="star"
         style="fill:#aeae00;fill-opacity:1;stroke:#000000;stroke-width:1.32292;stroke-linejoin:round;stroke-dasharray:none;paint-order:stroke markers fill"
         id="path61"
         inkscape:flatsided="true"
         sodipodi:sides="6"
         sodipodi:cx="81.034752"
         sodipodi:cy="72.24324"
         sodipodi:r1="21.023165"
         sodipodi:r2="18.206596"
         sodipodi:arg1="1.0471976"
         sodipodi:arg2="1.5707963"
         inkscape:rounded="0"
         inkscape:randomized="0"
         d="m 91.546333,90.449836 -21.023164,-1e-6 -10.511582,-18.206596 10.511583,-18.206594 21.023165,10e-7 10.511585,18.206595 z"
         transform="matrix(0.49452953,0,0,0.49452953,-7.8680082,23.865908)" />
      <path
         sodipodi:type="star"
         style="fill:#aeae00;fill-opacity:1;stroke:#000000;stroke-width:1.32292;stroke-linejoin:round;stroke-dasharray:none;paint-order:stroke markers fill"
         id="path62"
         inkscape:flatsided="true"
         sodipodi:sides="6"
         sodipodi:cx="81.034752"
         sodipodi:cy="72.24324"
         sodipodi:r1="21.023165"
         sodipodi:r2="18.206596"
         sodipodi:arg1="1.0471976"
         sodipodi:arg2="1.5707963"
         inkscape:rounded="0"
         inkscape:randomized="0"
         d="m 91.546333,90.449836 -21.023164,-1e-6 -10.511582,-18.206596 10.511583,-18.206594 21.023165,10e-7 10.511585,18.206595 z"
         transform="matrix(0.49452953,0,0,0.49452953,24.128574,5.1250059)" />
    </g>
    <path
       id="path63"
       style="fill:#ff0000;stroke:#000000;stroke-width:1.32292;stroke-linejoin:round;paint-order:stroke markers fill"
       inkscape:transform-center-x="0.39567939"
       inkscape:transform-center-y="1.7530465"
       d="m 145.81826,71.490133 c -16.9455,9.271239 -12.75397,-15.851835 -12.75397,-15.851835 l -6.6355,-8.60837 -7.63504,7.788933 c 0,0 -12.68508,0.903718 -13.90403,-3.73816 -1.21895,-4.641878 10.27352,-10.087152 10.27352,-10.087152 l -0.74138,-14.378672 12.76814,6.653596 9.797,0.797901 1.26646,8.253052 c 0,0 35.95049,13.640293 7.5648,29.170707 z"
       sodipodi:nodetypes="scccscccccs" />
    <path
       id="path64"
       style="fill:#00ffff;stroke:#000000;stroke-width:1.32292;stroke-linejoin:round;paint-order:stroke markers fill"
       d="m 77.706664,87.842325 c 0,6.2695 -2.75298,11.35193 -6.14896,11.35193 -3.39598,1e-5 -6.68954,-5.08243 -6.68954,-11.35193 0,-6.269502 6.5544,-26.758118 6.5544,-26.758118 0,0 6.2841,20.488623 6.2841,26.758118 z"
       sodipodi:nodetypes="ssscs" />
    <path
       style="color:#000000;fill:#000000;stroke-linejoin:round;-inkscape-stroke:none;paint-order:stroke markers fill"
       d="m 141.62848,14.745386 c -0.36428,7.5e-4 -0.65941,0.29588 -0.66016,0.66016 v 17.56836 c -3.2e-4,0.36504 0.29512,0.66135 0.66016,0.66211 h 59.46289 c 0.36581,3.2e-4 0.66243,-0.2963 0.66211,-0.66211 v -17.56836 c -7.6e-4,-0.36504 -0.29707,-0.66048 -0.66211,-0.66016 z m 0.66211,1.32227 54.48984,5.81111 3.64883,10.43498 h -58.13867 z"
       id="rect64"
       sodipodi:nodetypes="cccccccccccccc" />
    <path
       sodipodi:type="star"
       style="fill:#00ff00;fill-opacity:1;stroke:#2b0000;stroke-width:0.529167;stroke-linejoin:round;stroke-dasharray:none;paint-order:stroke markers fill"
       id="path66"
       inkscape:flatsided="false"
       sodipodi:sides="5"
       sodipodi:cx="76.447876"
       sodipodi:cy="153.85135"
       sodipodi:r1="19.190168"
       sodipodi:r2="10.446875"
       sodipodi:arg1="0.78539816"
       sodipodi:arg2="1.4137167"
       inkscape:rounded="0"
       inkscape:randomized="0"
       d="m 90.017374,167.42085 -11.935247,-3.25124 -10.346405,6.7803 -0.596079,-12.35578 -9.645673,-7.74478 11.56685,-4.38506 4.385052,-11.56685 7.744786,9.64568 12.355783,0.59607 -6.780309,10.34641 z"
       inkscape:transform-center-x="0.60816464"
       inkscape:transform-center-y="-0.6081658"
       transform="matrix(0.6555823,0,0,0.6555823,-21.372354,9.6113166)" />
    <circle
       style="display:inline;fill:#800000;fill-opacity:1;stroke:#2b0000;stroke-width:0.346913;stroke-linejoin:round;stroke-dasharray:none;paint-order:stroke markers fill"
       id="path67"
       cx="38.330566"
       cy="119.05623"
       r="7.4550343"
       sodipodi:insensitive="true" />
    <rect
       style="fill:#00ffff;fill-opacity:1;stroke:#2b0000;stroke-width:0.346913;stroke-linejoin:round;stroke-dasharray:none;paint-order:stroke markers fill"
       id="rect67"
       width="21.550688"
       height="11.652407"
       x="37.014969"
       y="106.21352" />
    <g
       id="g73"
       transform="translate(-51.624255,-35.136928)">
      <rect
         style="fill:#00ff00;fill-opacity:1;stroke:#2b0000;stroke-width:0.37776;stroke-linejoin:round;stroke-dasharray:none;paint-order:stroke markers fill"
         id="rect69"
         width="40.505795"
         height="15.643353"
         x="134.87054"
         y="105.58551" />
      <text
         xml:space="preserve"
         transform="matrix(0.87902131,0,0,0.87378786,56.921499,-561.49303)"
         id="text67"
         style="white-space:pre;shape-inside:url(#rect68);fill:#d40000;fill-opacity:1;stroke:#2b0000;stroke-width:2;stroke-linejoin:round;stroke-dasharray:none;paint-order:stroke markers fill"><tspan
           x="96.792969"
           y="775.9089"
           id="tspan1">Hola</tspan></text>
    </g>
    <g
       id="text69"
       transform="matrix(1.7011104,0,0,1.7011104,22.434512,-795.7285)"
       style="paint-order:stroke markers fill">
      <path
         style="color:#000000;fill:#2b0000;stroke-linejoin:round;-inkscape-stroke:none;paint-order:stroke markers fill"
         d="m 95.165091,497.0065 c -0.0323,2.8e-4 1.090863,0.21911 1.07966,0.24941 l -3.175782,8.72461 c -0.01758,0.0501 0.01915,0.10274 0.07227,0.10351 h 1.177734 c 0.03301,5.4e-4 0.06277,-0.0198 0.07422,-0.0508 l 0.835938,-2.38086 h 3.664062 l 0.835938,2.38086 c 0.01145,0.031 0.04121,0.0513 0.07422,0.0508 h 1.236329 c 0.0531,-7.7e-4 0.0898,-0.0534 0.0723,-0.10351 l -3.175782,-8.72461 c -0.0112,-0.0303 -0.03997,-0.0505 -0.07227,-0.0508 z m 1.20662,0.3529 2.271656,-1.8272 2.286933,10.39752 h -1.072261 l -0.835938,-2.38086 c -0.01145,-0.031 -0.0412,-0.0513 -0.07422,-0.0508 h -3.773438 c -0.03302,-5.4e-4 -0.06277,0.0198 -0.07422,0.0508 l -0.835937,2.38086 h -1.013671 z m 0.689453,0.85938 c -0.0323,2.8e-4 -0.06107,0.0205 -0.07227,0.0508 l -1.535156,4.2832 c -0.01759,0.0501 0.01914,0.10276 0.07227,0.10352 h 3.064453 c 0.05313,-7.6e-4 0.08986,-0.0534 0.07227,-0.10352 l -1.529297,-4.2832 c -0.0112,-0.0303 -0.03997,-0.0505 -0.07227,-0.0508 z m 0,0.30469 1.419922,3.97851 h -2.845703 z"
         id="path71"
         sodipodi:nodetypes="cccccccccccccccccccccccccccccccccccccc" />
      <path
         style="color:#000000;fill:#0000ff;stroke-linejoin:round;-inkscape-stroke:none;paint-order:stroke markers fill"
         d="m 98.060549,507.99267 -4.414065,-2.10525 -1.292407,-1.95498 -2.859838,0.27805 -1.33213,1.67693 -2.409107,0.11917 4.407154,-8.84378 1.546875,-0.47666 z m -6.699441,-6.32742 -0.337646,-1.70129 -0.93933,1.74101 z"
         id="path72"
         sodipodi:nodetypes="ccccccccccccc" />
    </g>
    <g
       id="g76">
      <circle
         style="fill:#ff0000;fill-opacity:1;stroke:url(#linearGradient74);stroke-width:0.264583;stroke-linejoin:round;stroke-dasharray:none;paint-order:stroke markers fill"
         id="path73"
         cx="125.14152"
         cy="116.62757"
         r="10.00051" />
      <circle
         style="fill:#f2f2f2;fill-opacity:1;stroke:url(#radialGradient76);stroke-width:0.264583;stroke-linejoin:round;stroke-dasharray:none;paint-order:stroke markers fill"
         id="path74"
         cx="129.26335"
         cy="113.31659"
         r="1.2838492" />
    </g>
  </g>
</svg>
