<?xml version="1.0" encoding="UTF-8" standalone="no"?>
<!-- Created with Inkscape (http://www.inkscape.org/) -->

<svg
   width="297mm"
   height="210mm"
   viewBox="0 0 1122.5197 793.70081"
   version="1.1"
   id="svg1"
   inkscape:version="1.3.2 (091e20e, 2023-11-25, custom)"
   sodipodi:docname="Reto10Eslabón_con_medidas.svg"
   xmlns:inkscape="http://www.inkscape.org/namespaces/inkscape"
   xmlns:sodipodi="http://sodipodi.sourceforge.net/DTD/sodipodi-0.dtd"
   xmlns="http://www.w3.org/2000/svg"
   xmlns:svg="http://www.w3.org/2000/svg">
  <sodipodi:namedview
     id="namedview1"
     pagecolor="#ffffff"
     bordercolor="#999999"
     borderopacity="1"
     inkscape:showpageshadow="2"
     inkscape:pageopacity="0"
     inkscape:pagecheckerboard="0"
     inkscape:deskcolor="#d1d1d1"
     inkscape:document-units="mm"
     showguides="true"
     inkscape:zoom="1.3844562"
     inkscape:cx="430.8551"
     inkscape:cy="226.44271"
     inkscape:window-width="1920"
     inkscape:window-height="991"
     inkscape:window-x="-9"
     inkscape:window-y="-9"
     inkscape:window-maximized="1"
     inkscape:current-layer="layer1">
    <sodipodi:guide
       position="472.44096,604.72442"
       orientation="0,1"
       id="guide1"
       inkscape:locked="false"
       inkscape:label=""
       inkscape:color="rgb(0,134,229)" />
    <sodipodi:guide
       position="188.97638,604.72442"
       orientation="-1,0"
       id="guide2"
       inkscape:locked="false"
       inkscape:label=""
       inkscape:color="rgb(0,134,229)" />
    <sodipodi:guide
       position="755.90553,604.72442"
       orientation="-1,0"
       id="guide3"
       inkscape:locked="false"
       inkscape:label=""
       inkscape:color="rgb(0,134,229)" />
    <sodipodi:guide
       position="472.44096,718.11025"
       orientation="0,1"
       id="guide4"
       inkscape:locked="false"
       inkscape:label=""
       inkscape:color="rgb(0,134,229)" />
    <sodipodi:guide
       position="472.44096,491.33859"
       orientation="0,1"
       id="guide5"
       inkscape:locked="false"
       inkscape:label=""
       inkscape:color="rgb(0,134,229)" />
    <sodipodi:guide
       position="188.97638,642.5197"
       orientation="0,1"
       id="guide6"
       inkscape:locked="false"
       inkscape:label=""
       inkscape:color="rgb(0,134,229)" />
    <sodipodi:guide
       position="188.97638,566.92915"
       orientation="0,1"
       id="guide7"
       inkscape:locked="false"
       inkscape:label=""
       inkscape:color="rgb(0,134,229)" />
  </sodipodi:namedview>
  <defs
     id="defs1" />
  <g
     inkscape:label="Capa 1"
     inkscape:groupmode="layer"
     id="layer1">
    <path
       id="path5"
       style="fill:none;stroke:#000000;stroke-width:2.8839;stroke-linejoin:round;paint-order:stroke markers fill"
       d="M 190.09571 76.708986 L 190.09571 77.060549 A 111.94388 111.94388 0 0 0 188.97657 77.033205 A 111.94388 111.94388 0 0 0 77.033205 188.97657 A 111.94388 111.94388 0 0 0 188.97657 300.91993 A 111.94388 111.94388 0 0 0 190.09571 300.83985 L 190.09571 301.24415 L 754.78713 301.24415 L 754.78713 300.83985 A 111.94388 111.94388 0 0 0 755.90627 300.91993 A 111.94388 111.94388 0 0 0 867.84963 188.97657 A 111.94388 111.94388 0 0 0 755.90627 77.033205 A 111.94388 111.94388 0 0 0 754.78713 77.113283 L 754.78713 76.708986 L 190.09571 76.708986 z M 188.97657 151.92188 A 37.05497 37.054958 0 0 1 226.03126 188.97657 A 37.05497 37.054958 0 0 1 188.97657 226.03126 A 37.05497 37.054958 0 0 1 151.92188 188.97657 A 37.05497 37.054958 0 0 1 188.97657 151.92188 z M 755.90627 151.92188 A 37.05497 37.054958 0 0 1 792.96096 188.97657 A 37.05497 37.054958 0 0 1 755.90627 226.03126 A 37.05497 37.054958 0 0 1 718.84963 188.97657 A 37.05497 37.054958 0 0 1 755.90627 151.92188 z " />
  </g>
</svg>
