<?xml version="1.0" encoding="UTF-8" standalone="no"?>
<!-- Created with Inkscape (http://www.inkscape.org/) -->

<svg
   width="297mm"
   height="210mm"
   viewBox="0 0 1122.5197 793.70081"
   version="1.1"
   id="svg1"
   inkscape:version="1.3.2 (091e20e, 2023-11-25, custom)"
   sodipodi:docname="Reto11Cadena_cinemática.svg"
   xmlns:inkscape="http://www.inkscape.org/namespaces/inkscape"
   xmlns:sodipodi="http://sodipodi.sourceforge.net/DTD/sodipodi-0.dtd"
   xmlns="http://www.w3.org/2000/svg"
   xmlns:svg="http://www.w3.org/2000/svg">
  <sodipodi:namedview
     id="namedview1"
     pagecolor="#ffffff"
     bordercolor="#999999"
     borderopacity="1"
     inkscape:showpageshadow="2"
     inkscape:pageopacity="0"
     inkscape:pagecheckerboard="0"
     inkscape:deskcolor="#d1d1d1"
     inkscape:document-units="mm"
     showguides="true"
     inkscape:zoom="1"
     inkscape:cx="485.5"
     inkscape:cy="308.5"
     inkscape:window-width="1920"
     inkscape:window-height="991"
     inkscape:window-x="-9"
     inkscape:window-y="-9"
     inkscape:window-maximized="1"
     inkscape:current-layer="layer1">
    <sodipodi:guide
       position="551.50001,306.9508"
       orientation="1,0"
       id="guide10"
       inkscape:locked="false" />
    <sodipodi:guide
       position="551.50001,306.9508"
       orientation="0,-1"
       id="guide11"
       inkscape:locked="false" />
  </sodipodi:namedview>
  <defs
     id="defs1" />
  <g
     inkscape:label="Capa 1"
     inkscape:groupmode="layer"
     id="layer1">
    <path
       id="path9"
       style="fill:#afe9c6;stroke:#000000;stroke-width:1.21289;stroke-linejoin:round;paint-order:stroke markers fill"
       d="m 216.32951,399.3157 -0.007,0.14769 a 47.080586,47.080586 0 0 0 -0.46954,-0.0346 47.080586,47.080586 0 0 0 -49.33793,44.70897 47.080586,47.080586 0 0 0 44.70897,49.33792 47.080586,47.080586 0 0 0 0.47176,-0.0105 l -0.008,0.16984 237.20687,11.67524 0.008,-0.16983 a 47.080586,47.080586 0 0 0 0.46845,0.0568 47.080586,47.080586 0 0 0 49.33792,-44.70897 47.080586,47.080586 0 0 0 -44.70896,-49.33792 47.080586,47.080586 0 0 0 -0.47176,0.0105 l 0.008,-0.16984 z m -2.02517,31.57113 a 15.584324,15.584319 2.8178056 0 1 14.79925,16.33149 15.584324,15.584319 2.8178056 0 1 -16.33149,14.79925 15.584324,15.584319 2.8178056 0 1 -14.79924,-16.33149 15.584324,15.584319 2.8178056 0 1 16.33148,-14.79925 z m 238.14711,11.72153 a 15.584324,15.584319 2.8178056 0 1 14.79923,16.33149 15.584324,15.584319 2.8178056 0 1 -16.33148,14.79924 15.584324,15.584319 2.8178056 0 1 -14.80006,-16.33153 15.584324,15.584319 2.8178056 0 1 16.33231,-14.7992 z"
       inkscape:transform-center-x="-119.18383"
       inkscape:transform-center-y="4.8888133" />
    <path
       id="path10"
       style="fill:#5599ff;stroke:#000000;stroke-width:1.21289;stroke-linejoin:round;paint-order:stroke markers fill"
       d="m 637.88557,243.26234 -0.0661,0.13225 a 47.080586,47.080586 0 0 0 -0.41585,-0.22077 47.080586,47.080586 0 0 0 -63.16448,21.05637 47.080586,47.080586 0 0 0 21.05636,63.16448 47.080586,47.080586 0 0 0 0.43607,0.18034 l -0.076,0.15208 212.42345,106.20591 0.076,-0.15208 a 47.080586,47.080586 0 0 0 0.40593,0.24062 47.080586,47.080586 0 0 0 63.16445,-21.05637 47.080586,47.080586 0 0 0 -21.05634,-63.16447 47.080586,47.080586 0 0 0 -0.43606,-0.18035 l 0.076,-0.15209 z m -14.56686,28.08281 a 15.584324,15.584319 26.563795 0 1 6.96993,20.90826 15.584324,15.584319 26.563795 0 1 -20.90826,6.96993 15.584324,15.584319 26.563795 0 1 -6.96993,-20.90826 15.584324,15.584319 26.563795 0 1 20.90826,-6.96993 z m 213.26543,106.62688 a 15.584324,15.584319 26.563795 0 1 6.96992,20.90825 15.584324,15.584319 26.563795 0 1 -20.90825,6.96993 15.584324,15.584319 26.563795 0 1 -6.97066,-20.90862 15.584324,15.584319 26.563795 0 1 20.90899,-6.96956 z"
       inkscape:transform-center-x="-106.41182"
       inkscape:transform-center-y="52.807716" />
    <path
       id="path5"
       style="fill:#aaeeff;stroke:#000000;stroke-width:1.21289;stroke-linejoin:round;paint-order:stroke markers fill"
       d="m 417.91456,425.16295 0.10712,0.10192 a 47.080586,47.080586 0 0 0 -0.33276,0.33308 47.080586,47.080586 0 0 0 1.65786,66.56105 47.080586,47.080586 0 0 0 66.56105,-1.65786 47.080586,47.080586 0 0 0 0.30002,-0.36423 l 0.12318,0.1172 163.70009,-172.06306 -0.12319,-0.1172 a 47.080586,47.080586 0 0 0 0.34885,-0.31778 47.080586,47.080586 0 0 0 -1.65787,-66.56105 47.080586,47.080586 0 0 0 -66.56105,1.65786 47.080586,47.080586 0 0 0 -0.30001,0.36423 l -0.1232,-0.1172 z m 22.59314,22.1447 a 15.584319,15.584324 43.573207 0 1 22.03257,-0.54877 15.584319,15.584324 43.573207 0 1 0.54878,22.03256 15.584319,15.584324 43.573207 0 1 -22.03257,0.54878 15.584319,15.584324 43.573207 0 1 -0.54878,-22.03257 z M 604.85665,274.56258 a 15.584319,15.584324 43.573207 0 1 22.03256,-0.54877 15.584319,15.584324 43.573207 0 1 0.54878,22.03256 15.584319,15.584324 43.573207 0 1 -22.03313,0.54937 15.584319,15.584324 43.573207 0 1 -0.54821,-22.03316 z"
       inkscape:transform-center-x="-82.442497"
       inkscape:transform-center-y="-86.291535" />
    <path
       id="path7"
       style="fill:#8dd35f;stroke:#000000;stroke-width:1.21289;stroke-linejoin:round;paint-order:stroke markers fill"
       d="m 88.433045,654.20027 0.139111,0.0501 a 47.080586,47.080586 0 0 0 -0.170328,0.43894 47.080586,47.080586 0 0 0 28.339022,60.24967 47.080586,47.080586 0 0 0 60.24967,-28.33902 47.080586,47.080586 0 0 0 0.1278,-0.45425 l 0.15997,0.0576 80.48565,-223.44008 -0.15996,-0.0576 a 47.080586,47.080586 0 0 0 0.19122,-0.43141 47.080586,47.080586 0 0 0 -28.33903,-60.24966 47.080586,47.080586 0 0 0 -60.24967,28.33901 47.080586,47.080586 0 0 0 -0.1278,0.45425 l -0.15998,-0.0576 z m 29.601125,11.16296 a 15.584319,15.584324 19.809596 0 1 19.94342,-9.38058 15.584319,15.584324 19.809596 0 1 9.38058,19.94341 15.584319,15.584324 19.809596 0 1 -19.94342,9.38058 15.584319,15.584324 19.809596 0 1 -9.38058,-19.94341 z m 80.80468,-224.32575 a 15.584319,15.584324 19.809596 0 1 19.94341,-9.38057 15.584319,15.584324 19.809596 0 1 9.38059,19.94341 15.584319,15.584324 19.809596 0 1 -19.94369,9.38135 15.584319,15.584324 19.809596 0 1 -9.38031,-19.94419 z" />
  </g>
</svg>
