<?xml version="1.0" encoding="UTF-8" standalone="no"?>
<!-- Created with Inkscape (http://www.inkscape.org/) -->

<svg
   width="210mm"
   height="297mm"
   viewBox="0 0 210 297"
   version="1.1"
   id="svg1"
   xml:space="preserve"
   inkscape:version="1.3.2 (091e20e, 2023-11-25, custom)"
   sodipodi:docname="dibujo_garra.svg"
   xmlns:inkscape="http://www.inkscape.org/namespaces/inkscape"
   xmlns:sodipodi="http://sodipodi.sourceforge.net/DTD/sodipodi-0.dtd"
   xmlns="http://www.w3.org/2000/svg"
   xmlns:svg="http://www.w3.org/2000/svg"><sodipodi:namedview
     id="namedview1"
     pagecolor="#ffffff"
     bordercolor="#999999"
     borderopacity="1"
     inkscape:showpageshadow="2"
     inkscape:pageopacity="0"
     inkscape:pagecheckerboard="0"
     inkscape:deskcolor="#d1d1d1"
     inkscape:document-units="mm"
     showguides="false"
     inkscape:zoom="5.6568543"
     inkscape:cx="401.37149"
     inkscape:cy="336.67122"
     inkscape:window-width="1920"
     inkscape:window-height="991"
     inkscape:window-x="-9"
     inkscape:window-y="-9"
     inkscape:window-maximized="1"
     inkscape:current-layer="layer5" /><defs
     id="defs1" /><g
     inkscape:label="Capa 1"
     inkscape:groupmode="layer"
     id="layer1"
     sodipodi:insensitive="true" /><g
     inkscape:groupmode="layer"
     id="layer2"
     inkscape:label="Abierta"
     style="display:none"
     sodipodi:insensitive="true"><path
       style="display:inline;fill:#ffffff;stroke:#000000;stroke-width:0.0804106;stroke-linejoin:round;paint-order:stroke markers fill"
       d="m 49.211092,43.553955 c 0,0 -3.285728,1.23215 -2.875012,-1.930364 l 0.841968,-2.649118 0.985719,-3.696443 c 0,0 2.074115,-3.532159 3.141977,-3.655372 l 3.100906,-2.628583 c 0,0 1.150005,-2.012508 2.710725,-2.012508 1.560721,0 6.489311,0.575003 6.489311,0.575003 l 3.491086,0.657145 c 0,0 2.957156,0.616073 3.614304,0.616073 0.657145,0 3.203585,0.123216 4.846449,0.451787 1.642864,0.328574 4.230375,2.587512 4.230375,2.587512 l 4.107159,4.353591 -0.08214,20.412581 -21.521519,-0.08214 -3.285729,-1.437506 c 0,0 -1.725007,-0.123216 -2.217866,-0.205358 -0.492859,-0.08215 -1.683936,-0.533932 -2.05358,-0.533932 -0.369645,0 -2.341081,-0.451787 -2.341081,-0.451787 0,0 -0.698218,-0.164287 -1.232149,-0.164287 -0.53393,0 -1.889293,0.287503 -2.423224,-0.04107 -0.533931,-0.328574 -1.314291,-1.314293 -1.314291,-1.314293 0,0 -0.410716,-2.38215 0.862503,-2.916082 0,0 2.382153,-2.628581 6.201812,-2.710723 0,0 1.355363,-0.287503 4.476805,0.287499 l 4.353589,0.451787 3.080369,0.575003 c 0,0 2.382153,-1.560721 2.710724,-2.751795 0.328574,-1.191077 -0.164287,-3.080373 -0.164287,-3.080373 0,0 -3.614298,-1.519647 -3.942872,-5.585735 0,0 -2.54644,-0.903577 -3.901799,-1.02679 0,0 -2.176796,0.164284 -2.710727,-1.150006 l -3.285728,2.546441 c 0,0 -0.862504,0.821431 -1.396434,0.328571 0,0 -0.328573,2.341082 -1.232148,2.710727 0,0 -1.766079,3.203579 -3.265193,3.470547 z"
       id="path2" /><circle
       style="display:inline;fill:#ff0000;stroke:#000000;stroke-width:0.0804106;stroke-linejoin:round;paint-order:stroke markers fill"
       id="path3-3"
       cx="47.052433"
       cy="43.453518"
       r="0.5227561" /><circle
       style="display:inline;fill:#ff0000;stroke:#000000;stroke-width:0.0804106;stroke-linejoin:round;paint-order:stroke markers fill"
       id="path3-1"
       cx="51.882778"
       cy="35.408478"
       r="0.5227561" /><circle
       style="display:inline;fill:#ff0000;stroke:#000000;stroke-width:0.0804106;stroke-linejoin:round;paint-order:stroke markers fill"
       id="path3-2"
       cx="58.36985"
       cy="31.543058"
       r="0.5227561" /><circle
       style="display:inline;fill:#ff0000;stroke:#000000;stroke-width:0.0804106;stroke-linejoin:round;paint-order:stroke markers fill"
       id="path3-8"
       cx="67.999359"
       cy="32.352871"
       r="0.5227561" /><circle
       style="display:inline;fill:#0000ff;stroke:#000000;stroke-width:0.0804106;stroke-linejoin:round;paint-order:stroke markers fill"
       id="path3-18-1"
       cx="49.476879"
       cy="48.979328"
       r="0.5227561" /><circle
       style="display:inline;fill:#0000ff;stroke:#000000;stroke-width:0.0804106;stroke-linejoin:round;paint-order:stroke markers fill"
       id="path3-18-1-9"
       cx="57.226776"
       cy="50.262943"
       r="0.5227561" /><circle
       style="display:inline;fill:#0000ff;stroke:#000000;stroke-width:0.0804106;stroke-linejoin:round;paint-order:stroke markers fill"
       id="path3-18-1-5"
       cx="65.186722"
       cy="51.876354"
       r="0.5227561" /><path
       style="fill:none;stroke:#000000;stroke-width:0.0804106;stroke-linejoin:round;paint-order:stroke markers fill"
       d="m 47.049997,43.560742 4.764305,-8.132177 6.448242,-3.901802 20.207228,1.848222"
       id="path5"
       sodipodi:nodetypes="cccc" /><circle
       style="display:inline;fill:#000000;stroke:#000000;stroke-width:0.0804106;stroke-linejoin:round;paint-order:stroke markers fill"
       id="path3-49"
       cx="76.221115"
       cy="33.130177"
       r="0.5227561" /><path
       style="fill:none;stroke:#000000;stroke-width:0.0804106;stroke-linejoin:round;paint-order:stroke markers fill"
       d="m 49.391078,49.023265 7.721461,1.355362 8.214321,1.725008 10.904188,-18.933412"
       id="path7" /></g><g
     inkscape:groupmode="layer"
     id="layer3"
     inkscape:label="Cerrada"
     style="display:none"
     sodipodi:insensitive="true"><path
       style="display:inline;fill:#ffffff;stroke:#000000;stroke-width:0.0804106;stroke-linejoin:round;paint-order:stroke markers fill"
       d="M 47.349492,88.287998 C 46.5944,87.620031 46.710568,86.2841 46.710568,86.2841 l 0.406588,-1.335932 c 0,0 0.14521,-5.111395 0.493714,-5.60511 0.348505,-0.493715 2.875159,-5.111393 4.588637,-6.621579 l 0.667967,-0.784133 c 0,0 0.406588,-1.452099 1.335932,-1.481141 0,0 0.377546,-0.551799 2.061983,-0.348505 l 10.367996,-0.203294 c 0,0 4.675764,-0.638926 5.547026,-0.493715 0.871258,0.14521 2.991325,0.726051 5.808398,2.817076 2.817077,2.091025 4.443429,5.08235 4.443429,5.08235 l -0.174253,19.545275 -20.910245,0.08713 c 0,0 -3.455999,-1.626352 -3.920671,-1.684436 -0.464672,-0.05808 -2.265277,-0.232336 -2.962285,-0.493715 -0.697008,-0.261378 -2.46857,-0.638925 -2.46857,-0.638925 l -2.120067,-0.203294 -2.381444,-0.116169 c 0,0 -0.464673,-0.290417 -1.132639,-0.871258 -0.667966,-0.580841 -0.261378,-1.858689 -0.261378,-1.858689 0,0 0.697008,-1.974856 1.103596,-2.061982 0.406589,-0.08713 -0.174252,0.319462 0.406589,-0.08713 0.58084,-0.406588 2.003898,-1.016468 3.281746,-1.481141 1.277849,-0.464673 4.240133,-0.464673 4.240133,-0.464673 l 2.265277,0.29042 2.613781,0.08713 3.775461,0.638925 1.161679,0.232333 2.43953,-2.323358 0.232336,-2.555701 c 0,0 -1.713478,-1.103595 -2.497613,-2.207193 -0.784133,-1.103595 -1.974857,-2.381445 -1.568268,-3.455998 0,0 -3.281747,0.929342 -4.530554,0.580841 -1.248806,-0.348505 -2.236234,-0.755094 -2.265276,-0.900304 -0.02904,-0.14521 -1.132639,2.149109 -2.032941,2.671866 0,0 -0.72605,1.248805 -1.59731,1.103595 0,0 0,1.829646 -0.319462,2.207193 0,0 -0.43563,1.539229 -0.900302,2.12007 -0.464672,0.580841 -0.813176,1.568268 -1.190723,1.800604 -0.377546,0.232337 -2.991327,1.364974 -2.991327,1.364974 z"
       id="path1" /><circle
       style="fill:#ff0000;stroke:#000000;stroke-width:0.0804106;stroke-linejoin:round;paint-order:stroke markers fill"
       id="path3"
       cx="47.817142"
       cy="88.384209"
       r="0.5227561" /><circle
       style="display:inline;fill:#0000ff;stroke:#000000;stroke-width:0.0804106;stroke-linejoin:round;paint-order:stroke markers fill"
       id="path3-18"
       cx="47.938683"
       cy="89.298286"
       r="0.5227561" /><circle
       style="display:inline;fill:#0000ff;stroke:#000000;stroke-width:0.0804106;stroke-linejoin:round;paint-order:stroke markers fill"
       id="path3-18-4"
       cx="55.423092"
       cy="90.720406"
       r="0.5227561" /><circle
       style="display:inline;fill:#0000ff;stroke:#000000;stroke-width:0.0804106;stroke-linejoin:round;paint-order:stroke markers fill"
       id="path3-18-44"
       cx="63.711601"
       cy="92.222527"
       r="0.5227561" /><circle
       style="display:inline;fill:#ff0000;stroke:#000000;stroke-width:0.0804106;stroke-linejoin:round;paint-order:stroke markers fill"
       id="path3-4"
       cx="50.861511"
       cy="80.037666"
       r="0.5227561" /><circle
       style="display:inline;fill:#ff0000;stroke:#000000;stroke-width:0.0804106;stroke-linejoin:round;paint-order:stroke markers fill"
       id="path3-4-3"
       cx="55.972385"
       cy="74.489845"
       r="0.5227561" /><circle
       style="display:inline;fill:#ff0000;stroke:#000000;stroke-width:0.0804106;stroke-linejoin:round;paint-order:stroke markers fill"
       id="path3-4-3-3"
       cx="64.2976"
       cy="74.068962"
       r="0.5227561" /><path
       style="display:inline;fill:none;stroke:#000000;stroke-width:0.0804106;stroke-linejoin:round;paint-order:stroke markers fill"
       d="m 47.788102,88.41325 3.081554,-8.257714 5.092878,-5.688416 19.673298,-0.944645"
       id="path4"
       sodipodi:nodetypes="cccc" /><circle
       style="display:inline;fill:#000000;stroke:#000000;stroke-width:0.0804106;stroke-linejoin:round;paint-order:stroke markers fill"
       id="path3-7"
       cx="74.576622"
       cy="73.535561"
       r="0.5227561" /><path
       style="fill:none;stroke:#000000;stroke-width:0.0804106;stroke-linejoin:round;paint-order:stroke markers fill"
       d="m 47.789286,89.519863 7.516102,1.355361 8.419679,1.519651 10.874648,-18.822649"
       id="path6" /></g><g
     inkscape:groupmode="layer"
     id="layer4"
     inkscape:label="Modelo abierto"
     sodipodi:insensitive="true"
     style="display:none"><path
       style="display:inline;fill:#ffffff;stroke:#000000;stroke-width:0.0804106;stroke-linejoin:round;paint-order:stroke markers fill"
       d="m 89.496989,44.849605 c 0,0 -3.285728,1.23215 -2.875012,-1.930364 l 0.841968,-2.649118 0.985719,-3.696443 c 0,0 2.074115,-3.532159 3.141977,-3.655372 l 3.100906,-2.628583 c 0,0 1.150005,-2.012508 2.710725,-2.012508 1.560721,0 6.489308,0.575003 6.489308,0.575003 l 3.49109,0.657145 c 0,0 2.95715,0.616073 3.6143,0.616073 0.65715,0 3.20359,0.123216 4.84645,0.451787 1.64287,0.328574 4.23038,2.587512 4.23038,2.587512 l 4.10716,4.353591 -0.0821,20.412581 -21.52152,-0.08214 -3.285732,-1.437506 c 0,0 -1.725007,-0.123216 -2.217866,-0.205358 -0.492859,-0.08215 -1.683936,-0.533932 -2.05358,-0.533932 -0.369645,0 -2.341081,-0.451787 -2.341081,-0.451787 0,0 -0.698218,-0.164287 -1.232149,-0.164287 -0.53393,0 -1.889293,0.287503 -2.423224,-0.04107 -0.533931,-0.328574 -1.314291,-1.314293 -1.314291,-1.314293 0,0 -0.410716,-2.38215 0.862503,-2.916082 0,0 2.382153,-2.628581 6.201812,-2.710723 0,0 1.355363,-0.287503 4.476805,0.287499 l 4.353593,0.451787 3.08036,0.575003 c 0,0 2.38216,-1.560721 2.71073,-2.751795 0.32857,-1.191077 -0.16429,-3.080373 -0.16429,-3.080373 0,0 -3.6143,-1.519647 -3.94287,-5.585735 0,0 -2.54644,-0.903577 -3.9018,-1.02679 0,0 -2.176795,0.164284 -2.710726,-1.150006 l -3.285728,2.546441 c 0,0 -0.862504,0.821431 -1.396434,0.328571 0,0 -0.328573,2.341082 -1.232148,2.710727 0,0 -1.766079,3.203579 -3.265193,3.470547 z"
       id="path2-9" /><circle
       style="fill:#ff0000;stroke:#000000;stroke-width:0.264583;stroke-linejoin:round;paint-order:stroke markers fill"
       id="path8"
       cx="88.249512"
       cy="44.435329"
       r="0.38223937" /><circle
       style="fill:#000000;stroke:#000000;stroke-width:0.264583;stroke-linejoin:round;paint-order:stroke markers fill"
       id="path9"
       cx="117.37138"
       cy="34.138756"
       r="0.40612936" /><circle
       style="fill:#0000ff;stroke:#000000;stroke-width:0.264583;stroke-linejoin:round;paint-order:stroke markers fill"
       id="path10"
       cx="90.599686"
       cy="50.231632"
       r="0.43001929" /><path
       style="fill:none;stroke:#000000;stroke-width:0.264583;stroke-linejoin:round;paint-order:stroke markers fill"
       d="m 88.201738,44.530888 4.443532,-7.979249 6.593631,-4.061293 18.156369,1.767858 V 50.312258 L 90.5098,50.249146"
       id="path11"
       sodipodi:nodetypes="cccccc" /><path
       style="display:inline;fill:#ffffff;stroke:#000000;stroke-width:0.0804106;stroke-linejoin:round;paint-order:stroke markers fill"
       d="m 87.645139,91.452193 c -0.755092,-0.667967 -0.638924,-2.003898 -0.638924,-2.003898 l 0.406588,-1.335932 c 0,0 0.14521,-5.111395 0.493714,-5.60511 0.348505,-0.493715 2.875159,-5.111393 4.588637,-6.621579 l 0.667967,-0.784133 c 0,0 0.406588,-1.452099 1.335932,-1.481141 0,0 0.377546,-0.551799 2.061983,-0.348505 l 10.367994,-0.203294 c 0,0 4.67577,-0.638926 5.54703,-0.493715 0.87126,0.14521 2.99133,0.726051 5.8084,2.817076 2.81707,2.091025 4.44343,5.08235 4.44343,5.08235 l -0.17426,19.545278 -20.91024,0.0871 c 0,0 -3.456002,-1.626355 -3.920674,-1.684439 -0.464672,-0.05808 -2.265277,-0.232336 -2.962285,-0.493715 -0.697008,-0.261378 -2.46857,-0.638925 -2.46857,-0.638925 L 90.171794,97.086347 87.79035,96.970178 c 0,0 -0.464673,-0.290417 -1.132639,-0.871258 -0.667966,-0.580841 -0.261378,-1.858689 -0.261378,-1.858689 0,0 0.697008,-1.974856 1.103596,-2.061982 0.406589,-0.08713 -0.174252,0.319462 0.406589,-0.08713 0.58084,-0.406588 2.003898,-1.016468 3.281746,-1.481141 1.277849,-0.464673 4.240133,-0.464673 4.240133,-0.464673 l 2.265277,0.29042 2.613776,0.08713 3.77547,0.638925 1.16167,0.232333 2.43953,-2.323358 0.23234,-2.555701 c 0,0 -1.71348,-1.103595 -2.49761,-2.207193 -0.78414,-1.103595 -1.97486,-2.381445 -1.56827,-3.455998 0,0 -3.28175,0.929342 -4.530554,0.580841 C 98.07122,81.084199 97.083792,80.67761 97.05475,80.5324 c -0.02904,-0.14521 -1.132639,2.149109 -2.032941,2.671866 0,0 -0.72605,1.248805 -1.59731,1.103595 0,0 0,1.829646 -0.319462,2.207193 0,0 -0.43563,1.539229 -0.900302,2.12007 -0.464672,0.580841 -0.813176,1.568268 -1.190723,1.800604 -0.377546,0.232337 -2.991327,1.364974 -2.991327,1.364974 z"
       id="path1-6" /><circle
       style="fill:#ff0000;stroke:#000000;stroke-width:0.264583;stroke-linejoin:round;paint-order:stroke markers fill"
       id="path8-7"
       cx="88.957314"
       cy="91.14167"
       r="0.38223937" /><circle
       style="fill:#000000;stroke:#000000;stroke-width:0.264583;stroke-linejoin:round;paint-order:stroke markers fill"
       id="path9-4"
       cx="115.82249"
       cy="76.23613"
       r="0.40612936" /><circle
       style="fill:#0000ff;stroke:#000000;stroke-width:0.264583;stroke-linejoin:round;paint-order:stroke markers fill"
       id="path10-0"
       cx="88.994041"
       cy="92.075172"
       r="0.43001929" /><path
       style="fill:none;stroke:#000000;stroke-width:0.264583;stroke-linejoin:round;paint-order:stroke markers fill"
       d="m 88.966217,91.164092 3.057913,-8.361487 4.969113,-5.685811 18.729727,-0.764479 V 91.92857 l -26.947875,0.09556"
       id="path12"
       sodipodi:nodetypes="cccccc" /></g><g
     inkscape:groupmode="layer"
     id="layer5"
     inkscape:label="circulos "><path
       id="path13"
       style="fill:none;stroke:#000000;stroke-width:0.264583;stroke-linejoin:round;paint-order:stroke markers fill"
       d="m 115.7805,73.336608 a 2.8297162,2.8297162 0 0 0 -2.75901,2.235523 c -0.0356,0.05986 -0.0579,0.128167 -0.0579,0.202571 v 0.211874 a 2.8297162,2.8297162 0 0 0 -0.0129,0.179834 2.8297162,2.8297162 0 0 0 0.0129,0.179833 V 91.183582 H 90.29626 c -0.0478,0 -0.0932,0.01 -0.13591,0.0238 a 2.8297162,2.8297162 0 0 0 -0.0491,-10e-4 2.8297162,2.8297162 0 0 0 -2.82928,2.82928 2.8297162,2.8297162 0 0 0 2.82928,2.8298 2.8297162,2.8297162 0 0 0 0.14263,-0.01 c 0.0141,10e-4 0.0279,0.004 0.0424,0.004 h 24.95042 c 0.006,0 0.0123,-10e-4 0.0186,-0.002 a 2.8297162,2.8297162 0 0 0 0.416,0.0315 2.8297162,2.8297162 0 0 0 2.82928,-2.8298 2.8297162,2.8297162 0 0 0 -0.0646,-0.59841 c 0.038,-0.0613 0.061,-0.13224 0.061,-0.20929 V 76.911584 a 2.8297162,2.8297162 0 0 0 0.10335,-0.745174 2.8297162,2.8297162 0 0 0 -2.8298,-2.829802 z" /><path
       id="path13-1"
       style="fill:none;stroke:#000000;stroke-width:0.220269;stroke-linejoin:round;paint-order:stroke markers fill"
       d="M 115.78053 73.336609 A 2.8297162 2.8297162 0 0 0 115.28134 73.386735 L 96.680404 75.24502 A 2.3557794 2.3557794 0 0 0 96.675236 75.245536 A 2.3557794 2.3557794 0 0 0 95.208659 76.06099 L 95.204008 76.063574 L 90.15057 82.086979 A 2.3557794 2.3557794 0 0 0 90.133 82.108167 L 90.075122 82.176896 L 90.063753 82.200667 A 2.3557794 2.3557794 0 0 0 89.638456 83.087952 L 87.26134 88.045789 A 2.3557794 2.3557794 0 0 0 86.984355 88.623531 L 86.972469 88.647819 L 86.974536 88.648853 A 2.3557794 2.3557794 0 0 0 86.866016 89.347518 A 2.3557794 2.3557794 0 0 0 89.221944 91.703446 A 2.3557794 2.3557794 0 0 0 91.489506 89.97797 L 93.901762 84.916781 L 93.905379 84.911096 L 97.126888 79.930522 L 115.72317 78.995178 L 115.72317 78.992078 A 2.8297162 2.8297162 0 0 0 115.78053 78.996212 A 2.8297162 2.8297162 0 0 0 118.61033 76.16641 A 2.8297162 2.8297162 0 0 0 115.78053 73.336609 z " /></g></svg>
